<svg xmlns="http://www.w3.org/2000/svg" viewBox="-34 -34 408 407"><rect x="-34" y="-34" width="408" height="407" rx="54" fill="#FCF6E6"/>

<path d="M0 0 C7.26 0 14.52 0 22 0 C21.07 7.83 19.24 14.77 16.62 22.19 C16.33 23.02 16.04 23.85 15.74 24.7 C13.97 29.62 11.99 34.37 9.75 39.08 C9 41 9 41 9 44 C12.54 39.03 16.01 34.04 19.25 28.88 C22.35 23.96 25.55 19.12 28.81 14.31 C29.29 13.59 29.77 12.87 30.27 12.13 C31.46 10.38 32.72 8.69 34 7 C34.66 7 35.32 7 36 7 C36.29 6.22 36.58 5.43 36.88 4.62 C38 2 38 2 40 0 C42.89 -0.23 42.89 -0.23 46.54 -0.2 C47.19 -0.19 47.19 -0.19 50.48 -0.18 C51.86 -0.16 53.24 -0.14 54.62 -0.12 C56.01 -0.11 57.4 -0.11 58.79 -0.1 C62.19 -0.07 65.6 -0.04 69 0 C62.55 5.04 56.44 5.33 48.57 5.39 C46.48 5.46 46.48 5.46 43 6 C41.75 7.72 41.75 7.72 41 10 C39.8 11.73 38.57 13.43 37.31 15.12 C33.46 20.36 29.69 25.65 26 31 C25.73 31.4 25.73 31.4 24.34 33.41 C21.56 37.5 19.07 41.52 17 46 C21.68 43.56 24.8 40.28 28.38 36.5 C42.3 22.28 58.01 13.05 76.9 6.79 C79 6 79 6 82 4 C82.33 2.68 82.66 1.36 83 0 C89.93 0 96.86 0 104 0 C104 2.31 104 4.62 104 7 C102.89 7.18 101.78 7.36 100.63 7.55 C92.58 8.9 84.74 10.32 77 13 C77.33 13.66 77.66 14.32 78 15 C80.21 15.72 82.44 16.35 84.69 16.94 C89.47 18.19 93.64 19.65 98 22 C98 22.66 98 23.32 98 24 C98.62 24.29 99.24 24.58 99.88 24.88 C102 26 102 26 104 28 C104.2 30.38 104.2 30.38 104.12 33.12 C104.11 34.04 104.09 34.95 104.07 35.88 C104.06 36.23 104.06 36.23 104 38 C77.74 39.04 77.74 39.04 68 33 C67.11 32.47 66.21 31.95 65.29 31.4 C63.08 30.02 60.97 28.7 59 27 C59 26.34 59 25.68 59 25 C54.94 25.47 51.53 25.88 48 28 C48 28.66 48 29.32 48 30 C46.6 30.96 45.2 31.92 43.76 32.83 C40.71 34.86 37.97 37.25 35.19 39.62 C34.6 40.11 34.02 40.6 33.42 41.11 C29.13 44.75 29.13 44.75 28 47 C29.09 46.94 30.19 46.88 31.31 46.81 C35 47 35 47 36.94 48.5 C37.29 48.99 37.64 49.49 38 50 C36.64 53.76 34.89 56.78 32.62 60.06 C23.36 74.57 23.45 89.72 27.02 106.04 C29.08 114.7 31.81 123.26 36.04 131.13 C37.56 134.09 38.72 137.18 39.93 140.28 C41.51 144.29 43.18 148.26 44.85 152.24 C45.23 153.15 45.61 154.06 46 155 C46.34 155.8 46.68 156.6 47.02 157.42 C49.24 163.28 50.63 169.4 52.06 175.5 C52.24 176.22 52.41 176.94 52.59 177.68 C56.94 196.13 57.65 218.06 51 236 C50.72 236.79 50.43 237.58 50.14 238.4 C44.97 252.61 38.82 265.37 29 277 C28.33 277.8 27.67 278.6 26.98 279.43 C13.52 295.03 -2.78 305.12 -22 312 C-23.08 312.39 -24.15 312.78 -25.26 313.18 C-36.79 317.21 -47.57 318.41 -59.75 318.38 C-60.48 318.37 -61.21 318.37 -61.96 318.37 C-74.66 318.33 -86.66 317.14 -99 314 C-99.9 313.78 -100.79 313.55 -101.72 313.32 C-115.76 309.72 -129.46 305.4 -142 298 C-141.5 299.18 -141.01 300.35 -140.5 301.56 C-138.97 305.59 -138.73 308.72 -139 313 C-140.65 313.33 -142.3 313.66 -144 314 C-144.18 313.43 -144.36 312.86 -144.55 312.28 C-146.14 307.39 -147.9 302.69 -150 298 C-150.99 302.62 -151.98 307.24 -153 312 C-154.65 312.33 -156.3 312.66 -158 313 C-158.8 309.71 -159.1 308.29 -158 305 C-157.93 302.94 -157.92 300.87 -157.94 298.81 C-157.95 297.73 -157.96 296.64 -157.96 295.52 C-157.98 294.69 -157.99 293.86 -158 293 C-160.31 295.64 -162.62 298.28 -165 301 C-166.32 300.67 -167.64 300.34 -169 300 C-168.52 294.85 -165.81 291.18 -163 287 C-163.53 287.27 -164.06 287.53 -164.61 287.8 C-166.74 288.87 -168.87 289.93 -171 291 C-171.69 291.37 -172.38 291.74 -173.09 292.12 C-175.49 293.22 -177.4 293.14 -180 293 C-180.33 292.34 -180.33 292.34 -182 289 C-178.04 287.02 -174.08 285.04 -170 283 C-171.13 282.88 -172.26 282.76 -173.43 282.63 C-174.91 282.46 -176.39 282.29 -177.88 282.12 C-178.62 282.05 -179.37 281.97 -180.14 281.89 C-185.77 281.23 -185.77 281.23 -188 279 C-188 277.68 -188 276.36 -188 275 C-183.71 275 -179.42 275 -175 275 C-175 271.94 -176.82 270.72 -178.81 268.44 C-184.93 261.07 -190.05 253.18 -195 245 C-195.4 244.34 -195.81 243.68 -196.22 242.99 C-213.81 213.5 -221.8 176.32 -213.91 142.49 C-206.1 112.85 -188.38 88.75 -163 72 C-162.12 71.41 -161.25 70.83 -160.35 70.22 C-140.25 57.42 -115.88 54.93 -92.62 54.76 C-91.44 54.75 -90.26 54.74 -89.03 54.73 C-84.12 54.71 -79.21 54.69 -74.29 54.69 C-55.1 54.71 -33.57 54.56 -18.51 40.71 C-14.19 36.14 -10.78 31.44 -7.97 25.81 C-7 24 -7 24 -5 22 C-2.56 21.88 -2.56 21.88 0 23 C2.29 27.02 3.15 31.49 4 36 C4.79 33.79 5.58 31.58 6.38 29.38 C6.82 28.15 7.26 26.92 7.71 25.65 C11.19 15.79 11.19 15.79 11.62 11.62 C11.69 11.03 11.69 11.03 12 8 C11.3 7.67 10.6 7.35 9.88 7.01 C8.97 6.57 8.06 6.14 7.12 5.69 C6.22 5.26 5.32 4.83 4.38 4.39 C2 3 2 3 0 0 Z M-5 33 C-6.12 34.5 -7.17 36.05 -8.19 37.62 C-16.54 49.74 -30.29 56.52 -44.54 59.54 C-58.55 61.89 -72.83 61.38 -86.99 61.46 C-100.98 61.54 -114.32 61.85 -128 65 C-129.33 65.29 -130.67 65.59 -132 65.88 C-156.3 71.41 -178.06 87.31 -191.53 108.14 C-208.41 135.44 -213.92 167.39 -206.54 198.88 C-204.78 205.75 -202.53 212.38 -200 219 C-199.73 219.72 -199.46 220.44 -199.19 221.19 C-193.47 236.22 -184.67 251.81 -173 263 C-173.44 256.32 -176.08 251.21 -179 245.25 C-183.25 236.27 -186.91 227.23 -190.06 217.81 C-190.43 216.73 -190.8 215.64 -191.18 214.53 C-195.24 202.09 -196.35 190.1 -196.31 177.06 C-196.33 175.81 -196.34 174.55 -196.36 173.26 C-196.37 160.93 -194.12 149.52 -189.44 138.12 C-189.09 137.28 -188.75 136.43 -188.39 135.56 C-177.57 110.04 -159.1 92.29 -134 81 C-133.64 80.84 -133.64 80.84 -131.84 80.01 C-115.53 73.25 -96.37 73.19 -79 72.56 C-53.87 71.58 -28.17 68.31 -10 49 C-2.52 40.06 -2.52 40.06 -3 33 C-3.66 33 -4.32 33 -5 33 Z M-3 47 C-3.26 47.31 -3.26 47.31 -4.58 48.91 C-18.03 64.55 -34.24 71.19 -54 75 C-54.42 75.09 -54.42 75.09 -56.53 75.52 C-65.14 77.15 -73.7 77.45 -82.43 77.78 C-101.33 78.5 -119.76 79.34 -137 88 C-137.88 88.42 -138.77 88.84 -139.68 89.27 C-162.54 100.78 -178.51 121.16 -186.84 145.11 C-198.68 181.1 -188.43 213.28 -173 246.26 C-169.23 254.36 -165.94 262.56 -163 271 C-162.67 271 -162.34 271 -162 271 C-161.84 264.66 -162.32 258.95 -163.62 252.75 C-163.71 252.32 -163.71 252.32 -164.16 250.16 C-166.08 241.11 -168.67 232.26 -171.29 223.39 C-179.98 193.93 -181.02 168.55 -166.46 141.09 C-153.43 118.5 -131.95 102.86 -106.95 95.82 C-97.49 93.37 -88 92.2 -78.3 91.16 C-52.21 88.23 -22.19 78.87 -5.12 57.59 C-3.62 55.45 -2.62 53.55 -2 51 C-2.29 49.66 -2.62 48.32 -3 47 Z M14 55 C2.26 63.22 -1.02 78.42 -3.53 91.86 C-5.83 107.35 -4.41 123.79 -1 139 C-0.8 139.91 -0.59 140.82 -0.38 141.75 C0.49 145.61 1.36 149.46 2.29 153.3 C8.86 180.9 3.39 209.72 -11 234 C-23.78 254.08 -43.96 267.9 -67.09 273.45 C-78.19 275.55 -89.23 276.15 -100.5 276.5 C-130.02 277.44 -130.02 277.44 -141 283 C-141 283.33 -141 283.66 -141 284 C-140.45 284.02 -139.9 284.04 -139.33 284.06 C-128.68 284.46 -118.18 285.1 -107.62 286.52 C-77.56 290.48 -45.38 287.75 -20.34 269.02 C-17.48 266.77 -14.72 264.42 -12 262 C-11.11 261.21 -10.22 260.42 -9.3 259.6 C9.55 241.77 21.26 217.58 22.2 191.56 C22.5 174.54 19.19 160.02 14.06 143.83 C11.85 136.85 9.82 129.86 8.06 122.75 C7.96 122.35 7.96 122.35 7.46 120.32 C5.42 111.9 4.79 103.97 4.75 95.31 C4.74 94.75 4.74 94.75 4.69 91.92 C4.63 80.46 7.3 71.59 12.75 61.62 C13.55 60.1 14.28 58.55 15 57 C14.67 56.34 14.34 55.68 14 55 Z M-4.77 63.65 C-5.44 64.41 -6.12 65.16 -6.81 65.94 C-27.29 87.04 -56.51 93.18 -84.46 96.57 C-106.18 99.23 -124.69 105.06 -142 119 C-142.43 119.34 -142.43 119.34 -144.59 121.05 C-160.09 134.1 -170.76 154.95 -173 175 C-174.17 195.17 -170.2 211.99 -163.93 231.04 C-159.48 244.63 -157.18 257.76 -156 272 C-145.58 256.38 -151.16 230.9 -154.2 214.04 C-158.27 190.83 -156.6 168.76 -143.7 148.37 C-131.02 130.74 -110.46 123.15 -90.11 118.47 C-68.28 113.43 -48.93 106.31 -30.9 92.79 C-27.8 90.88 -25.61 90.24 -22 90 C-21.34 90.33 -20.68 90.66 -20 91 C-19.54 99.04 -20.64 106.37 -22.25 114.2 C-23.67 121.38 -24.19 128.2 -24.19 135.5 C-24.19 135.99 -24.19 135.99 -24.19 138.48 C-24.15 143.76 -23.87 148.79 -23 154 C-21.91 161.02 -21.74 167.97 -21.7 175.07 C-21.69 177 -21.66 178.93 -21.63 180.87 C-21.64 198.54 -26.03 214.98 -37 229 C-37.37 229.52 -37.37 229.52 -39.25 232.12 C-53.69 247.23 -73.56 253.04 -93.5 256.38 C-112.66 259.62 -131.5 263.58 -147 276 C-147.33 276.99 -147.66 277.98 -148 279 C-147.71 278.91 -147.71 278.91 -146.27 278.45 C-143.52 277.6 -140.76 276.8 -138 276 C-137.11 275.74 -136.22 275.48 -135.3 275.21 C-125.18 272.57 -115.16 272.33 -104.75 272 C-76.95 271.12 -50.43 267.52 -29 248 C-28.29 247.39 -27.59 246.77 -26.86 246.14 C-10.9 231.44 -1.76 207.29 0 186 C0.06 185.31 0.12 184.62 0.19 183.91 C1.29 169.58 -1.49 156.32 -4.81 142.48 C-10.76 117.61 -12.22 90.88 -0.95 67.21 C0 65 0 65 0 62 C-3 62 -3 62 -4.77 63.65 Z M-32.25 100 C-49.18 113.06 -69.23 119.41 -90 123.56 C-104.08 126.39 -116.29 131.53 -128 140 C-128.72 140.51 -129.43 141.02 -130.17 141.54 C-142.02 150.85 -148.78 167.24 -150.68 181.88 C-151.7 191.84 -150.51 201.27 -148.86 211.07 C-147.01 222.25 -145.52 233.26 -145.56 244.62 C-145.57 245.57 -145.57 246.52 -145.57 247.49 C-145.69 252.97 -146.56 257.72 -148 263 C-148.15 265.37 -148.1 267.63 -148 270 C-147.67 269.81 -147.67 269.81 -145.98 268.86 C-130.71 260.39 -115.99 255.65 -98.89 252.5 C-81.31 249.23 -64.28 245.32 -50 234 C-48.95 233.24 -47.9 232.47 -46.81 231.69 C-34 219.45 -27.28 201.8 -26.69 184.35 C-26.53 174.3 -26.64 164.34 -28 154.38 C-30.49 136.07 -29.77 118.57 -24.46 100.86 C-24 99 -24 99 -24 96 C-28.02 96 -29.15 97.49 -32.25 100 Z M24 246 C22.21 248.38 20.6 250.75 19 253.25 C2.98 277.3 -20.58 292.59 -48.94 298.62 C-53.08 299.13 -57.21 299.36 -61.38 299.56 C-62.21 299.61 -63.04 299.65 -63.89 299.69 C-65.93 299.8 -67.96 299.9 -70 300 C-70.56 301.94 -70.56 301.94 -71 304 C-69.34 305.66 -67.48 305.25 -65.19 305.31 C-40.93 305.05 -16.6 295.18 2 280 C2.92 279.26 3.83 278.52 4.78 277.76 C13.34 270.45 22.6 260.53 27 250 C27 248.68 27 247.36 27 246 C26.01 246 25.02 246 24 246 Z " fill="#80432B" transform="translate(226,10)"/>
<path d="M0 0 C0.99 0 1.98 0 3 0 C2.43 3.3 1.61 6.04 0.19 9.06 C-10.27 35.04 -6.49 62.59 0.04 88.94 C1.99 97.07 3.37 104.73 3.31 113.12 C3.31 114.04 3.3 114.95 3.3 115.89 C2.86 140.28 -5.75 165.85 -23.2 183.32 C-46.33 205.42 -73.23 209.05 -104.04 209.95 C-115.92 210.32 -126.59 211.6 -138 215 C-139.32 215.38 -140.63 215.75 -141.95 216.13 C-142.45 216.27 -142.45 216.27 -145 217 C-143.06 211.17 -135.71 208.08 -130.5 205.24 C-116.88 198.5 -101.56 196.28 -86.73 193.7 C-70.09 190.76 -55.07 186.07 -42 175 C-41.43 174.58 -40.85 174.17 -40.26 173.74 C-28.43 165.01 -21.76 147.72 -19.46 133.72 C-18.71 127.66 -18.81 121.61 -18.81 115.5 C-18.81 114.82 -18.81 114.15 -18.81 113.45 C-18.81 105.04 -19.19 96.98 -20.54 88.67 C-22.46 73.27 -21.4 56.96 -17.46 41.94 C-16.85 39.35 -16.91 36.91 -16.94 34.25 C-16.95 33.27 -16.96 32.28 -16.96 31.27 C-16.98 30.52 -16.99 29.77 -17 29 C-19.44 28.12 -19.44 28.12 -23 28 C-25.27 29.15 -27.21 30.57 -29.27 32.06 C-48 45.39 -68.46 52.59 -90.76 57.53 C-110.48 61.9 -129.65 70.65 -141.63 87.71 C-154.58 109.31 -154.89 131.87 -150.5 155.94 C-147.08 175 -146.88 191.29 -152 210 C-152.33 210 -152.66 210 -153 210 C-153.02 209.71 -153.02 209.71 -153.15 208.23 C-154.69 191.05 -158.74 175.37 -164 159 C-164.73 156.69 -165.46 154.39 -166.18 152.08 C-166.5 151.06 -166.82 150.04 -167.15 148.99 C-173.46 126.91 -170.97 102.27 -159.97 82.12 C-146.82 59.5 -126.13 44.5 -101.08 37.46 C-94.97 35.95 -88.78 35.36 -82.54 34.71 C-67.87 33.16 -53.97 30.96 -40 26 C-38.87 25.61 -37.75 25.22 -36.59 24.82 C-22.27 19.35 -10.75 10.75 0 0 Z " fill="#FAEDDC" transform="translate(223,72)"/>
<path d="M0 0 C-0.27 1.56 -0.54 3.13 -0.81 4.69 C-0.99 5.71 -1.17 6.73 -1.36 7.79 C-2 11 -2 11 -2.8 13.71 C-6.89 27.86 -6.02 43.91 -4 58.38 C-0.63 83.09 -1.65 106.96 -16.1 128.07 C-30.56 146.82 -53.24 152.89 -75.56 156.55 C-91.94 159.26 -106.45 163.98 -120.7 172.64 C-123 174 -123 174 -124 174 C-124.16 170.08 -124.06 167.22 -123.02 163.4 C-121.75 158.47 -121.58 153.7 -121.56 148.62 C-121.56 147.61 -121.55 146.6 -121.55 145.56 C-121.71 134.54 -123.4 123.77 -125.22 112.93 C-128.88 90.88 -126.17 71.35 -113.08 52.68 C-101.66 37.96 -81.77 30.54 -64 27.12 C-42.52 22.98 -22.48 15.51 -5.39 1.69 C-3 0 -3 0 0 0 Z M-34.44 32.69 C-43.75 38.1 -52.85 41.33 -63.25 44.16 C-79.88 48.74 -96.09 56.35 -105 72 C-108.66 80.1 -111.1 87.63 -111.16 96.56 C-111.17 97.62 -111.18 98.69 -111.19 99.78 C-111.19 100.92 -111.2 102.05 -111.2 103.22 C-111.21 104.4 -111.21 105.58 -111.22 106.79 C-111.23 109.28 -111.24 111.76 -111.24 114.25 C-111.25 118.05 -111.28 121.86 -111.31 125.66 C-111.32 128.08 -111.32 130.49 -111.33 132.91 C-111.34 134.05 -111.35 135.18 -111.37 136.35 C-111.36 137.42 -111.36 138.48 -111.36 139.57 C-111.36 140.5 -111.36 141.43 -111.37 142.39 C-110.92 145.59 -109.99 147.46 -108 150 C-99.93 151.23 -92.97 148.32 -85.44 145.62 C-83.08 144.8 -80.73 143.98 -78.37 143.16 C-77.26 142.78 -76.16 142.4 -75.02 142 C-71.37 140.79 -67.73 139.89 -64 139 C-48.12 134.2 -35.57 126.8 -27 112 C-22.38 102.63 -20.71 93.61 -20.66 83.25 C-20.64 82.24 -20.63 81.23 -20.61 80.19 C-20.57 76.98 -20.53 73.77 -20.5 70.56 C-20.46 66.33 -20.4 62.11 -20.34 57.88 C-20.34 56.92 -20.33 55.97 -20.33 54.98 C-20.25 49.78 -19.77 45.05 -18.45 40.02 C-17.69 36.59 -17.75 33.5 -18 30 C-20 28 -20 28 -22.6 27.58 C-27.29 28.16 -30.45 30.26 -34.44 32.69 Z " fill="#F9EDDC" transform="translate(202,106)"/>
<path d="M0 0 C-0.14 1.56 -0.29 3.13 -0.44 4.69 C-0.48 5.12 -0.48 5.12 -0.68 7.32 C-1 10 -1 10 -1.51 12.37 C-1.98 14.88 -2.13 17.15 -2.14 19.69 C-2.15 20.59 -2.16 21.5 -2.16 22.42 C-2.17 22.91 -2.17 22.91 -2.18 25.35 C-2.2 27.42 -2.22 29.49 -2.25 31.56 C-2.28 34.8 -2.31 38.05 -2.33 41.29 C-2.41 58.27 -3.17 73.17 -15.19 86.41 C-23.86 94.73 -33.63 98.76 -45 102 C-45.96 102.27 -46.92 102.55 -47.91 102.83 C-48.9 103.11 -49.89 103.39 -50.91 103.68 C-51.92 103.97 -52.93 104.26 -53.97 104.56 C-56.03 105.14 -58.1 105.73 -60.17 106.31 C-65.74 107.91 -70.9 109.69 -76.06 112.35 C-78.44 113.15 -79.67 112.86 -82 112 C-83.67 110.33 -83.15 108.32 -83.18 106.03 C-83.18 105.5 -83.18 105.5 -83.22 102.81 C-83.22 101.65 -83.23 100.49 -83.24 99.29 C-83.25 98.1 -83.25 96.91 -83.26 95.68 C-83.28 93.15 -83.29 90.62 -83.3 88.09 C-83.31 84.24 -83.36 80.4 -83.4 76.56 C-83.41 74.09 -83.42 71.63 -83.43 69.17 C-83.44 68.03 -83.46 66.89 -83.48 65.72 C-83.44 52.63 -79.12 41.17 -70.48 31.26 C-61.1 22.47 -49.68 18.3 -37.52 15.2 C-26.07 12.25 -15.85 7.72 -5.79 1.54 C-3 0 -3 0 0 0 Z M-55 40 C-55.87 40.58 -56.73 41.16 -57.62 41.75 C-61.56 45.47 -63.73 48.54 -64.32 53.91 C-64.5 63.56 -62.4 69.77 -56 77 C-50.34 80.77 -42.61 80.46 -36.06 79.31 C-29.87 76.66 -24.31 73.28 -21.75 66.88 C-20.38 59.81 -19.88 53.33 -23.52 46.89 C-26.99 42.45 -31.66 38.78 -37 37 C-43.56 36.51 -49.38 36.17 -55 40 Z " fill="#FAEFD9" transform="translate(179,139)"/>
<path d="M0 0 C0.33 0.66 0.66 1.32 1 2 C-0.53 5.28 -2.2 8.44 -3.93 11.62 C-15.77 34.18 -8.1 62.28 -1 85.12 C-0.82 85.68 -0.82 85.68 0.06 88.49 C9.81 119.44 11.81 149.05 -3.19 178.69 C-17.78 204.41 -40.78 221.97 -69.04 230 C-88.63 235.17 -111.15 233.99 -131 230.47 C-135.6 229.75 -140.22 229.63 -144.88 229.44 C-145.85 229.39 -146.82 229.35 -147.83 229.31 C-150.22 229.2 -152.61 229.1 -155 229 C-154 227 -154 227 -150.5 225.5 C-138.99 221.95 -126.74 221.9 -114.81 221.56 C-86.78 220.69 -61.71 216.27 -40 197 C-39.66 196.71 -39.66 196.71 -37.96 195.24 C-19.35 178.08 -10.32 151.06 -8.78 126.45 C-8.4 111.17 -11.74 96.34 -15.29 81.56 C-19.5 63.87 -20.4 43.51 -15 26 C-14.85 25.47 -14.85 25.47 -14.09 22.82 C-11.24 13.54 -8.02 5.78 0 0 Z " fill="#F9ECDB" transform="translate(240,65)"/>
<path d="M0 0 C0.75 2.24 1.11 3.59 0.47 5.89 C-7.73 22.14 -27.52 31.87 -44.16 37.43 C-55.7 41.08 -67.46 43.51 -79.51 44.66 C-108.47 47.44 -135.8 58.44 -155 81 C-169.85 100.43 -177.46 123.77 -174.75 148.27 C-173.09 160.03 -169.84 171.29 -166.4 182.64 C-158.23 209.8 -158.23 209.8 -159 224 C-161.6 221.4 -162.16 219.05 -163.38 215.56 C-166.16 207.79 -169.52 200.32 -172.94 192.81 C-178.08 181.41 -182.5 170.01 -186 158 C-186.36 156.82 -186.72 155.65 -187.09 154.44 C-191.53 137.48 -190.12 118.63 -185 102 C-184.79 101.32 -184.58 100.63 -184.37 99.92 C-176.38 74.68 -159.73 54.65 -136.5 42.06 C-129.24 38.3 -122.03 35.66 -114 34 C-113.2 33.83 -112.39 33.66 -111.57 33.49 C-103.03 31.87 -94.57 31.58 -85.91 31.28 C-55.68 30.16 -26.62 27.03 -4 5 C-2.61 3.38 -1.25 1.73 0 0 Z " fill="#F9EBDA" transform="translate(223,57)"/>
<path d="M0 0 C0.66 0 1.32 0 2 0 C2.61 7.54 -1.33 11.48 -6 17 C-18 30.43 -36.5 36.05 -53.86 38.04 C-54.59 38.12 -55.33 38.21 -56.08 38.3 C-65.03 39.29 -74.01 39.69 -83 40.1 C-114.91 41.62 -142.16 49.38 -165 72.94 C-182.52 92.99 -191.41 117.43 -191.25 143.88 C-191.26 145.15 -191.27 146.42 -191.27 147.73 C-191.25 160.79 -189.27 172.46 -185.06 184.81 C-184.87 185.39 -184.87 185.39 -183.89 188.31 C-180.7 197.56 -176.85 206.43 -172.54 215.22 C-170.11 220.24 -168.37 224.41 -168 230 C-173.35 224.9 -177.02 219.19 -181 213 C-181.65 212.04 -182.3 211.09 -182.98 210.1 C-200.96 182.81 -209.13 146.38 -202.81 114.11 C-195.13 84.59 -179.39 58.94 -152.82 43.05 C-145.23 38.66 -137.45 35.65 -129.06 33.25 C-128.37 33.05 -127.68 32.85 -126.97 32.65 C-109.9 28.07 -92.54 28.63 -75.01 28.54 C-51.74 28.4 -25.83 28.22 -7.87 10.95 C-4.77 7.51 -2.36 3.98 0 0 Z " fill="#F9EBDA" transform="translate(221,43)"/>
<path d="M0 0 C2 2 2 2 2.25 5.56 C2.19 8.57 1.76 11.21 1 14.11 C-0.19 19.31 -0.26 24.29 -0.24 29.6 C-0.25 31.64 -0.27 33.68 -0.29 35.72 C-0.3 38.88 -0.31 42.04 -0.31 45.21 C-0.29 63.74 -1.75 81 -15.1 95.24 C-26.71 106.11 -40.55 110.86 -55.81 114.4 C-61.72 115.82 -67.35 117.81 -72.98 120.07 C-77.67 121.86 -83.04 123.47 -88 122 C-90.55 118.48 -91.38 115.99 -91.39 111.67 C-91.39 111.14 -91.39 111.14 -91.42 108.51 C-91.41 107.95 -91.41 107.95 -91.4 105.12 C-91.4 103.96 -91.4 102.79 -91.41 101.6 C-91.41 99.13 -91.4 96.67 -91.39 94.21 C-91.38 90.48 -91.39 86.74 -91.41 83.01 C-91.41 80.61 -91.4 78.21 -91.4 75.81 C-91.4 74.71 -91.41 73.6 -91.42 72.46 C-91.28 57.23 -86.99 44.44 -76.45 33.32 C-66.4 23.8 -54.49 19.16 -41.31 15.69 C-30.44 12.68 -20.82 8.66 -11.13 2.89 C-7.17 0.54 -4.66 -0.65 0 0 Z M-12.06 8.56 C-22.8 14.92 -34.28 19.3 -46.44 22.06 C-53.36 23.64 -59.07 26.09 -65 30 C-65.8 30.52 -66.6 31.05 -67.43 31.59 C-75.34 37.24 -80.73 44.88 -84 54 C-84.35 54.96 -84.7 55.93 -85.06 56.92 C-86.59 62.38 -86.29 68.02 -86.27 73.64 C-86.27 74.85 -86.27 76.06 -86.27 77.3 C-86.27 79.84 -86.27 82.38 -86.26 84.92 C-86.25 88.82 -86.26 92.72 -86.27 96.62 C-86.27 99.08 -86.27 101.55 -86.27 104.02 C-86.27 105.19 -86.27 106.36 -86.28 107.57 C-86.27 108.65 -86.27 109.72 -86.26 110.84 C-86.26 111.79 -86.26 112.74 -86.25 113.72 C-86 116 -86 116 -84 118 C-79.72 117.6 -75.89 115.84 -71.94 114.25 C-65.65 111.79 -59.38 110.02 -52.81 108.5 C-37.27 104.84 -22.56 98.34 -13 85 C-7.77 75.57 -5.72 67.09 -5.66 56.42 C-5.64 55.41 -5.63 54.41 -5.61 53.37 C-5.57 50.16 -5.53 46.96 -5.5 43.75 C-5.46 39.54 -5.4 35.32 -5.34 31.11 C-5.34 30.16 -5.33 29.21 -5.33 28.23 C-5.24 22.46 -4.61 17.06 -3.43 11.41 C-3 9 -3 9 -3 5 C-6.96 5 -8.69 6.49 -12.06 8.56 Z " fill="#613626" transform="translate(182,134)"/>
<path d="M0 0 C1.77 1 1.77 1 4.83 3.25 C5.72 3.82 6.61 4.4 7.52 5 C12 9.36 14.06 13.98 14.27 20.25 C13.99 25.86 13.13 30.81 9.18 35 C2.31 41.01 -3.07 42.14 -12.17 42.25 C-17.6 41.73 -20.64 39.35 -24.17 35.25 C-24.91 34.42 -25.65 33.6 -26.42 32.75 C-30.28 27.23 -29.76 19.73 -29.17 13.25 C-27.39 7.1 -22.45 3.48 -17.17 0.25 C-11.85 -1.53 -5.34 -1.86 0 0 Z " fill="#F1A21B" transform="translate(144.16796875,176.75390625)"/>
<path d="M0 0 C0.99 0 1.98 0 3 0 C2.41 11.55 -9.71 23.27 -17.96 30.77 C-20.91 33.29 -23.91 35.67 -27 38 C-27.93 38.71 -28.87 39.42 -29.83 40.15 C-48.04 53.14 -71.8 59.71 -94 59 C-94.56 57.06 -94.56 57.06 -95 55 C-93.16 53.16 -90.58 53.8 -88.12 53.71 C-79.72 53.42 -72.03 52.64 -64 50 C-63.3 49.77 -62.6 49.54 -61.87 49.3 C-35.3 40.47 -16.39 26.14 -1.69 2.2 C-1.13 1.48 -0.58 0.75 0 0 Z " fill="#7F2B15" transform="translate(250,256)"/>

</svg>