<?xml version="1.0" encoding="UTF-8"?>
<!-- Generator: visioncortex VTracer 0.6.12 -->
<svg version="1.1" xmlns="http://www.w3.org/2000/svg" viewBox="0 0 452 501">

<path d="M0 0 C-0.67 4 -1.91 7.53 -3.38 11.31 C-12.6 36.62 -9.2 61.09 -3.37 86.77 C2.99 114.83 0.33 142.8 -14.15 168.11 C-26.46 187.38 -44.26 200.12 -66.26 206.18 C-79.52 209.1 -92.55 209.58 -106.08 209.95 C-118.29 210.31 -129.28 211.47 -141 215 C-142.31 215.38 -143.63 215.75 -144.94 216.13 C-145.45 216.27 -145.45 216.27 -148 217 C-146.58 212.74 -143.47 211.39 -139.81 209.12 C-139.17 208.7 -138.53 208.28 -137.87 207.85 C-126.87 200.95 -114.57 198.25 -101.94 196.06 C-77.49 191.6 -51.73 186.62 -35.69 165.75 C-31.66 159.82 -28.6 153.67 -26 147 C-25.58 145.99 -25.17 144.97 -24.74 143.93 C-19.45 128.28 -20.72 108.14 -23 91.94 C-25.09 76.96 -24.65 62.45 -21.42 47.67 C-20.07 41.37 -19.78 35.44 -20 29 C-22.44 28.12 -22.44 28.12 -26 28 C-29.23 29.64 -32.06 31.88 -35 34 C-54.04 46.54 -73.89 53.17 -96.06 58.06 C-114.46 62.17 -133.7 71.24 -144.39 87.43 C-158.7 110.83 -157.13 134.55 -152.78 160.5 C-150.08 176.97 -149.4 194.07 -155 210 C-155.33 210 -155.66 210 -156 210 C-156.04 209.42 -156.09 208.85 -156.13 208.26 C-157.43 192.65 -160.97 178.57 -165.84 163.71 C-174.19 138.22 -177.42 111.2 -165.12 86.5 C-152.23 61.86 -132.47 46.3 -106.09 38.02 C-97.07 35.6 -87.62 34.76 -78.36 33.7 C-51.32 30.58 -23.1 22.2 -4.4 1.21 C-3 0 -3 0 0 0 Z " fill="#F9ECDC" transform="translate(232,228)"/>
<path d="M0 0 C0 1.32 0 2.64 0 4 C-0.92 4.44 -1.84 4.88 -2.79 5.33 C-27.31 17.44 -43.29 38.33 -52 64 C-62.3 98.79 -52.29 129.58 -37.54 161.22 C-33.93 169 -30.85 176.91 -28 185 C-27.84 179.19 -28.33 173.94 -29.5 168.25 C-29.67 167.41 -29.84 166.58 -30.01 165.72 C-32.86 152.26 -36.69 138.85 -41.07 125.81 C-45.94 111.06 -46.1 91.62 -41 77 C-40.66 75.97 -40.32 74.94 -39.97 73.88 C-30.99 48.61 -13.53 29.83 10.22 17.74 C12.54 16.78 14.52 16.69 17 17 C17 18.32 17 19.64 17 21 C16.52 21.24 16.52 21.24 14.07 22.47 C5.98 26.6 -1.14 30.98 -8 37 C-8.78 37.64 -9.56 38.27 -10.36 38.93 C-24.86 51.06 -34.6 71.35 -37 90 C-38.24 111.61 -33.75 129.65 -27 150 C-23.22 161.51 -21.49 173.02 -20 185 C-15.18 169.18 -16.44 152.46 -19.14 136.37 C-23.4 110.72 -24.18 87.31 -9.71 64.37 C3.77 45.67 25.37 37.77 46.99 32.86 C67.89 28.1 87.75 21.25 104.61 7.53 C107.48 5.69 109.61 5.18 113 5 C113.99 5.66 114.98 6.32 116 7 C117.16 14.14 115.52 21.35 114 28.31 C111.1 42.94 111.21 57.16 113.27 71.89 C116.62 98.41 114.63 124.4 98.25 146.44 C82.13 165.17 58.4 170.37 35.23 174.62 C17.64 177.86 2.5 182.09 -12 193 C-12.33 193.66 -12.66 194.32 -13 195 C-12.18 194.66 -11.36 194.32 -10.51 193.98 C-9.39 193.53 -8.28 193.08 -7.12 192.62 C-6.03 192.18 -4.94 191.74 -3.82 191.29 C3.83 188.52 11.7 187.7 19.79 187.47 C21.63 187.4 23.48 187.33 25.33 187.26 C28.19 187.16 31.04 187.06 33.9 186.97 C63.51 185.98 89.91 180.47 111 158 C124.68 142.47 131.66 122.35 134 102 C134.99 102.66 135.98 103.32 137 104 C137.19 106.62 137.19 106.62 137 109 C137.66 109 138.32 109 139 109 C138.58 116 137.32 122.16 134.94 128.75 C134.78 129.18 134.78 129.18 134 131.37 C129.61 143.21 123.42 153.54 115 163 C114.34 163.76 113.67 164.52 112.99 165.3 C95.57 183.98 69.75 192.06 44.83 193.14 C41.32 193.25 37.82 193.34 34.31 193.44 C20.75 193.87 7.95 194.62 -5 199 C-1.7 199.17 -1.7 199.17 15 200 C15 200.33 15 200.66 15 201 C9.39 201.33 3.78 201.66 -2 202 C-1.34 202.66 -1.34 202.66 2 206 C-0.31 206.33 -2.62 206.66 -5 207 C6.99 213.41 19.36 218.43 32.64 221.46 C35 222 35 222 38 223 C38 223.66 38 224.32 38 225 C38.62 225.06 38.62 225.06 41.75 225.38 C44.08 225.61 45.71 225.84 47.77 226.99 C56.08 230.77 67.78 229.16 76.79 229.13 C78.83 229.12 80.87 229.13 82.91 229.14 C93.86 229.13 93.86 229.13 98.82 228.37 C99.87 228.25 100.92 228.12 102 228 C102.66 228.66 103.32 229.32 104 230 C94.29 233.65 85.33 234.66 75.06 234.5 C74.34 234.49 73.62 234.49 72.88 234.48 C60.27 234.37 48.24 233.1 36 230 C35.11 229.78 34.23 229.56 33.32 229.33 C19.54 225.85 5.08 221.69 -7 214 C-6.5 215.18 -6.01 216.35 -5.5 217.56 C-3.97 221.59 -3.73 224.72 -4 229 C-5.65 229.33 -7.3 229.66 -9 230 C-9.12 229.52 -9.12 229.52 -9.75 227.06 C-11.04 222.51 -13 218.28 -15 214 C-15.06 214.42 -15.06 214.42 -15.37 216.52 C-15.53 217.61 -15.7 218.69 -15.88 219.81 C-16.04 220.89 -16.2 221.97 -16.37 223.08 C-17 226 -17 226 -19 229 C-20.65 228.67 -22.3 228.34 -24 228 C-23.84 227.33 -23.67 226.65 -23.5 225.96 C-22.91 222.49 -22.9 219.21 -22.94 215.69 C-22.95 214.43 -22.96 213.18 -22.96 211.89 C-22.98 210.93 -22.99 209.98 -23 209 C-25.31 211.64 -27.62 214.28 -30 217 C-31.32 216.67 -32.64 216.34 -34 216 C-33.39 210.51 -33.39 210.51 -31.56 208.12 C-30 207 -30 207 -28 207 C-27.67 205.35 -27.34 203.7 -27 202 C-28.32 202 -29.64 202 -31 202 C-31 201.34 -31 200.68 -31 200 C-31.66 200 -32.32 200 -33 200 C-33 199.34 -33 198.68 -33 198 C-33.63 198.01 -34.26 198.02 -34.91 198.04 C-40.37 198.09 -45.61 197.96 -51 197 C-51.66 196.34 -52.32 195.68 -53 195 C-53 193.68 -53 192.36 -53 191 C-47.72 191 -42.44 191 -37 191 C-37.83 190.18 -37.83 190.18 -42 186 C-51.01 176.36 -58.02 164.7 -64 153 C-64.45 152.14 -64.9 151.27 -65.37 150.38 C-72.69 136.13 -72.69 136.13 -73 129 C-71.56 125.62 -71.56 125.62 -70 123 C-67.44 125.26 -66.35 127.18 -65.24 130.39 C-65.08 130.83 -65.08 130.83 -64.3 133.02 C-63.97 133.94 -63.65 134.86 -63.31 135.81 C-58.2 149.66 -51.19 161.18 -42.32 172.92 C-40.82 174.9 -39.38 176.93 -38 179 C-39.85 172.05 -42.37 165.89 -45.62 159.5 C-49.62 151.36 -53 143.12 -56 134.56 C-56.37 133.52 -56.75 132.48 -57.13 131.41 C-64.44 110 -65.62 82.52 -58 61 C-57.76 60.31 -57.53 59.62 -57.28 58.92 C-49.5 36.81 -35.75 17.84 -16 5 C-14.95 4.22 -13.9 3.43 -12.81 2.62 C-9.11 0.49 -4.09 -2.05 0 0 Z M102.75 16 C86.36 28.69 67.41 34.8 47.31 39 C32.41 42.13 19.01 46.26 7 56 C6.31 56.51 5.62 57.02 4.9 57.54 C-6.15 66.18 -13.09 81.19 -15.31 94.81 C-16.68 107.41 -15.94 119.03 -13.5 131.44 C-11.75 141.08 -10.53 150.49 -10.56 160.31 C-10.56 160.79 -10.56 160.79 -10.57 163.2 C-10.68 168.34 -11.28 173.08 -12.57 178.06 C-13.16 180.72 -13.14 183.28 -13 186 C-10.58 184.83 -8.26 183.57 -5.93 182.23 C8.33 174.08 22.89 170.89 38.92 167.96 C60.19 164.02 81.37 158.01 95 140 C110.11 117.3 109.92 92.69 106.72 66.46 C104.74 50.03 105.93 33.27 110.41 17.32 C111 15 111 15 111 12 C106.98 12 105.85 13.49 102.75 16 Z " fill="#693423" transform="translate(97,250)"/>
<path d="M0 0 C-1.82 10.35 -1.82 10.35 -3.06 15.44 C-6.08 28.89 -5.68 43.15 -4 56.75 C-0.86 83.38 -1.3 108.87 -18.31 130.94 C-32.82 147.65 -54.61 153.12 -75.56 156.55 C-91.09 159.12 -105.55 163.24 -118.94 171.77 C-121 173 -121 173 -124 174 C-123.86 172.25 -123.71 170.5 -123.56 168.75 C-123.48 167.78 -123.4 166.8 -123.32 165.8 C-123 163 -123 163 -122.5 161.11 C-119.09 146.63 -122.41 130.08 -125.22 115.77 C-129.43 93.71 -126.95 72.78 -114.25 54.06 C-101.34 37.56 -82.75 31.47 -63.14 26.94 C-42.04 22.05 -21.37 15.66 -4.7 1.21 C-3 0 -3 0 0 0 Z M-34.44 32.69 C-43.75 38.1 -52.85 41.33 -63.25 44.16 C-80.28 48.85 -94.53 56.24 -104.53 71.38 C-108.96 79.27 -111.09 87.53 -111.16 96.56 C-111.17 97.62 -111.18 98.69 -111.19 99.78 C-111.19 100.92 -111.2 102.05 -111.2 103.22 C-111.21 104.4 -111.21 105.58 -111.22 106.79 C-111.23 109.28 -111.24 111.76 -111.24 114.25 C-111.25 118.05 -111.28 121.86 -111.31 125.66 C-111.32 128.08 -111.32 130.49 -111.33 132.91 C-111.34 134.05 -111.35 135.18 -111.37 136.35 C-111.36 137.42 -111.36 138.48 -111.36 139.57 C-111.36 140.5 -111.36 141.43 -111.37 142.39 C-110.92 145.59 -109.99 147.46 -108 150 C-100.14 151.15 -93.53 148.5 -86.19 145.88 C-83.79 145.04 -81.38 144.21 -78.98 143.38 C-77.8 142.97 -76.62 142.56 -75.4 142.14 C-71.47 140.82 -67.52 139.68 -63.52 138.58 C-55.06 136.22 -48 133.51 -41 128 C-40.28 127.47 -39.56 126.94 -38.81 126.39 C-28.71 118.37 -23.33 106.48 -21 94 C-20.16 86.05 -20.29 78.04 -20.31 70.06 C-20.3 66.91 -20.29 63.76 -20.26 60.61 C-20.25 58.66 -20.24 56.72 -20.25 54.78 C-20.23 49.64 -19.76 45.01 -18.45 40.03 C-17.69 36.6 -17.75 33.5 -18 30 C-20 28 -20 28 -22.6 27.58 C-27.29 28.16 -30.45 30.26 -34.44 32.69 Z " fill="#F9ECDB" transform="translate(208,262)"/>
<path d="M0 0 C0.33 0 0.66 0 1 0 C1.11 1.02 1.22 2.03 1.33 3.08 C2.6 14.29 4.48 24.59 9 35 C9.93 37.48 10.85 39.95 11.75 42.44 C13.82 48.06 16.09 53.54 18.56 59 C22.05 66.82 24.8 74.73 27 83 C27.23 83.86 27.46 84.72 27.7 85.61 C32.76 105.1 33.89 123.37 29 143 C28.73 144.09 28.47 145.19 28.19 146.31 C22.59 166.62 10.13 185.56 -6 199 C-6.76 199.65 -7.53 200.3 -8.32 200.98 C-20.08 210.76 -32.68 216.11 -47 221 C-48.06 221.37 -49.12 221.75 -50.21 222.13 C-67.34 227.48 -88.92 227.06 -106 222 C-107.79 221.66 -109.58 221.35 -111.38 221.06 C-127.84 218.1 -143.6 212.58 -158 204 C-158 203.67 -158 203.34 -158 203 C-147.97 202.77 -138.12 203.08 -128.12 204 C-118.78 204.84 -109.51 205.19 -100.12 205.19 C-98.98 205.19 -97.83 205.19 -96.65 205.19 C-85.9 205.12 -76.09 204.53 -65.88 201 C-64.97 200.69 -64.07 200.38 -63.14 200.07 C-35.06 190.11 -12.9 170.92 0.3 144.12 C6.98 129.86 9.26 115.99 9.31 100.31 C9.32 99.57 9.32 98.83 9.32 98.07 C9.33 83.61 8.04 70.22 2.07 56.84 C-0.42 50.22 -1.79 43.19 -3.43 36.32 C-4.16 33.34 -4.99 30.39 -5.81 27.44 C-7.59 20.3 -8.61 11.71 -5 5 C-2.38 3.62 -2.38 3.62 0 3 C0 2.01 0 1.02 0 0 Z M19 112 C18.88 113.06 18.76 114.12 18.63 115.22 C17.8 122.3 16.88 129.11 15 136 C14.6 138.33 14.29 140.65 14 143 C15.32 143 16.64 143 18 143 C18.65 141.29 19.3 139.59 19.94 137.88 C20.3 136.92 20.66 135.97 21.03 134.99 C22.82 129.49 23.12 124.39 23.06 118.62 C23.06 118 23.06 118 23.04 114.85 C23.02 113.91 23.01 112.97 23 112 C21.68 112 20.36 112 19 112 Z M7 159 C5.46 160.84 5.46 160.84 3.81 163.38 C-14.47 190.51 -37.16 203.93 -68.44 211.6 C-72.21 212.19 -76 212.37 -79.81 212.56 C-80.6 212.61 -81.39 212.65 -82.2 212.69 C-84.13 212.8 -86.07 212.9 -88 213 C-88 214.32 -88 215.64 -88 217 C-85.82 219.18 -81.56 218.31 -78.63 218.32 C-65.57 218.08 -52.71 214.67 -41 209 C-40.46 208.76 -40.46 208.76 -37.72 207.55 C-22.09 200.3 -8.81 189.52 1.75 175.94 C2.22 175.35 2.69 174.77 3.17 174.16 C6.91 169.39 10 165.27 10 159 C9.01 159 8.02 159 7 159 Z " fill="#B95634" transform="translate(249,253)"/>
<path d="M0 0 C-0.14 1.56 -0.29 3.13 -0.44 4.69 C-0.48 5.12 -0.48 5.12 -0.68 7.32 C-1 10 -1 10 -1.51 12.37 C-1.98 14.88 -2.13 17.15 -2.14 19.69 C-2.15 20.59 -2.16 21.5 -2.16 22.42 C-2.17 22.91 -2.17 22.91 -2.18 25.35 C-2.2 27.42 -2.22 29.49 -2.25 31.56 C-2.28 34.8 -2.31 38.05 -2.33 41.29 C-2.41 58.27 -3.17 73.17 -15.19 86.41 C-25.95 96.75 -38.75 100.29 -52.74 104.14 C-60.69 106.35 -68.27 108.64 -75.72 112.21 C-78.31 113.11 -79.48 112.99 -82 112 C-83.67 110.33 -83.15 108.32 -83.18 106.03 C-83.18 105.5 -83.18 105.5 -83.22 102.81 C-83.22 101.65 -83.23 100.49 -83.24 99.29 C-83.25 98.1 -83.25 96.91 -83.26 95.68 C-83.28 93.15 -83.29 90.62 -83.3 88.09 C-83.31 84.24 -83.36 80.4 -83.4 76.56 C-83.41 74.09 -83.42 71.63 -83.43 69.17 C-83.44 68.03 -83.46 66.89 -83.48 65.72 C-83.44 52.56 -79.16 40.27 -69.82 30.78 C-58.9 21.46 -46.56 17.42 -32.99 13.7 C-23 10.89 -14.03 6.82 -5.26 1.27 C-3 0 -3 0 0 0 Z M-55 36 C-55 36.99 -55 37.98 -55 39 C-55.76 39.08 -56.53 39.17 -57.31 39.25 C-60.7 40.2 -61.28 40.96 -63 44 C-66.92 51.7 -67.71 61.14 -65.27 69.49 C-63.73 72.51 -62.47 73.84 -59.25 74.94 C-58.51 74.96 -57.77 74.98 -57 75 C-57 76.65 -57 78.3 -57 80 C-49.41 82.94 -40.02 83.55 -32.17 81.12 C-27.22 78.56 -22.86 74.82 -20 70 C-18.82 65.91 -18.9 61.92 -18.94 57.69 C-18.95 56.43 -18.96 55.18 -18.96 53.89 C-18.98 52.93 -18.99 51.98 -19 51 C-19.32 50.86 -19.32 50.86 -20.96 50.14 C-21.64 49.77 -22.31 49.39 -23 49 C-23.56 46.69 -23.56 46.69 -24 44 C-25.82 40.37 -27.53 38.12 -31 36 C-33.66 35.66 -33.66 35.66 -36.64 35.71 C-37.71 35.72 -38.78 35.73 -39.88 35.74 C-40.99 35.76 -42.11 35.79 -43.25 35.81 C-44.38 35.83 -45.5 35.84 -46.66 35.85 C-49.44 35.89 -52.22 35.94 -55 36 Z " fill="#F9EFDC" transform="translate(185,295)"/>
<path d="M0 0 C-1.92 4.98 -4.24 9.74 -6.56 14.55 C-9.87 22.5 -10.34 29.54 -10.31 38.06 C-10.33 39.09 -10.34 40.12 -10.36 41.19 C-10.37 57.34 -5.27 72.61 -0.76 87.95 C7.65 116.7 7.65 116.7 7.31 131.12 C7.31 131.55 7.31 131.55 7.27 133.68 C6.74 156.68 -0.77 177.56 -16 195 C-16.72 195.84 -17.45 196.69 -18.19 197.56 C-35.86 217.74 -60.76 231.24 -87.82 233.2 C-90.76 233.3 -93.68 233.33 -96.62 233.31 C-97.7 233.31 -98.78 233.31 -99.88 233.31 C-108.64 233.2 -117.18 232.31 -125.85 231.14 C-135.88 229.8 -145.89 229.31 -156 229 C-155 227 -155 227 -153.24 226.22 C-140.99 222.5 -128.77 221.88 -116.06 221.5 C-85.23 220.57 -57.28 214.58 -35.16 191.57 C-17.58 170.62 -7.99 142.31 -10 115 C-11.38 101.94 -14.41 89.15 -17.48 76.4 C-22.38 53.98 -20.43 26.3 -7.94 6.5 C-2.9 0 -2.9 0 0 0 Z " fill="#F9EBDB" transform="translate(247,221)"/>
<path d="M0 0 C0.75 2.24 1.11 3.59 0.47 5.89 C-8.37 23.39 -29.75 32.45 -47.31 38.75 C-57.63 42.02 -68.18 43.48 -78.92 44.67 C-108.18 47.95 -135.41 57.97 -155 81 C-164.36 93.33 -170.2 107.03 -174 122 C-174.18 122.63 -174.35 123.27 -174.54 123.92 C-178.75 142.86 -172.31 163.15 -166.88 181.07 C-158.41 209.19 -158.41 209.19 -159 224 C-161.6 221.4 -162.16 219.05 -163.38 215.56 C-166.18 207.76 -169.52 200.24 -172.94 192.69 C-188.01 159.11 -195.28 127.85 -181.73 92.15 C-177.72 82.17 -171.95 73.19 -165 65 C-164.42 64.28 -163.84 63.55 -163.24 62.8 C-146.91 43.19 -122.81 33.91 -97.96 31.57 C-91.52 31.04 -85.08 30.79 -78.62 30.56 C-51.06 29.51 -24.17 25.35 -4 5 C-2.64 3.35 -1.3 1.69 0 0 Z " fill="#F9EBDA" transform="translate(229,213)"/>
<path d="M0 0 C0.66 0 1.32 0 2 0 C2.61 7.53 -1.33 11.48 -6 17 C-18.38 30.61 -34.53 34.84 -52 38 C-52.95 38.18 -53.9 38.36 -54.88 38.54 C-58.2 39.03 -61.39 39.18 -64.73 39.25 C-66.02 39.28 -67.31 39.31 -68.64 39.34 C-69.31 39.36 -69.98 39.37 -70.67 39.39 C-106.7 40.25 -137.56 45.27 -164 72 C-174.52 83.42 -182.12 97.32 -187 112 C-187.41 113.21 -187.83 114.42 -188.25 115.67 C-198.71 150.09 -186.9 185.51 -171.95 216.4 C-171.45 217.43 -170.95 218.47 -170.44 219.54 C-169.99 220.45 -169.55 221.36 -169.09 222.3 C-167.92 225.2 -167.4 227.9 -167 231 C-181.34 217.72 -190.82 198.33 -196.98 180.03 C-197.78 177.65 -198.66 175.37 -199.62 173.06 C-203.63 162.24 -204.49 150.96 -204.39 139.54 C-204.37 137.43 -204.39 135.33 -204.41 133.23 C-204.46 105.16 -192.16 77.91 -172.5 58.06 C-150.52 36.57 -122.02 29.05 -91.89 28.75 C-89.56 28.72 -87.24 28.69 -84.92 28.65 C-81.3 28.61 -77.69 28.56 -74.08 28.52 C-70.55 28.48 -67.03 28.43 -63.51 28.38 C-62.45 28.37 -61.39 28.36 -60.3 28.35 C-41.13 28.04 -22.26 23.72 -7.6 10.72 C-5.07 8 -3.17 4.93 -1.26 1.76 C-0.85 1.18 -0.43 0.6 0 0 Z " fill="#F9EADA" transform="translate(227,199)"/>
<path d="M0 0 C0.99 0.33 1.98 0.66 3 1 C3.91 4.09 3.91 4.09 4.62 7.94 C5.94 14.88 5.94 14.88 7 17 C7.33 11.39 7.66 5.78 8 0 C8.33 0 8.66 0 9 0 C9.66 2.31 10.32 4.62 11 7 C11.33 7 11.66 7 12 7 C12.66 14.59 13.32 22.18 14 30 C15.98 27.03 17.96 24.06 20 21 C22.2 18.34 22.2 18.34 24.12 16.38 C24.77 15.7 25.41 15.03 26.07 14.34 C28 13 28 13 30.24 13.29 C30.82 13.52 31.4 13.76 32 14 C31.34 14.66 30.68 15.32 30 16 C30 16.99 30 17.98 30 19 C28.68 20.62 28.68 20.62 26.88 22.44 C22.65 27.06 17 34.48 17 41 C18.15 39.02 18.15 39.02 24 29 C24.99 29.33 25.98 29.66 27 30 C26.44 33.99 25.24 36.53 22.94 39.81 C22.39 40.6 21.84 41.39 21.28 42.21 C20.86 42.8 20.43 43.39 20 44 C29.89 36.28 33.83 28.06 37 16 C37.33 16 37.66 16 38 16 C38.16 17.65 38.16 17.65 39 26 C38.34 26 37.68 26 37 26 C36.89 26.58 36.78 27.16 36.67 27.76 C34.45 38.7 29.28 45.45 20.12 51.81 C17 54 17 54 15 57 C14.77 59.54 14.77 59.54 14.8 62.54 C14.81 63.08 14.81 63.08 14.82 65.79 C14.84 66.91 14.86 68.03 14.88 69.19 C14.88 70.32 14.89 71.45 14.9 72.62 C14.93 75.41 14.96 78.21 15 81 C18.26 80.31 19.79 79.54 22 77 C22.99 77.33 23.98 77.66 25 78 C22.69 81.63 20.38 85.26 18 89 C18.37 88.61 18.37 88.61 20.25 86.62 C22.54 84.43 24.12 83.17 27 82 C27.26 85.06 27.22 86.63 25.62 89.31 C25.09 89.87 24.55 90.43 24 91 C23.34 91 22.68 91 22 91 C21.69 91.62 21.38 92.24 21.06 92.88 C20.38 94.25 19.69 95.62 19 97 C19.66 97 20.32 97 21 97 C20.83 97.5 20.83 97.5 20 100 C19.67 100.16 19.67 100.16 18 101 C18.33 101.99 18.66 102.98 19 104 C18.69 104.13 18.69 104.13 17.09 104.76 C13.81 106.7 13.72 109.05 12.76 112.61 C12.19 115.17 11.67 117.72 11.21 120.3 C9.44 130.03 7.14 139.27 3.88 148.62 C3.53 149.63 3.18 150.63 2.82 151.66 C0.28 158.72 0.28 158.72 -2 161 C-2 159.68 -2 158.36 -2 157 C-3.16 157.66 -3.16 157.66 -9 161 C-8.67 160.01 -8.34 159.02 -8 158 C-7.34 158 -6.68 158 -6 158 C-5.89 157 -5.78 156.01 -5.66 154.98 C-5.08 150.89 -3.83 147.18 -2.44 143.31 C-1.03 139.4 0 136.23 0 132 C-0.7 131.69 -1.4 131.37 -2.12 131.05 C-3.03 130.62 -3.94 130.19 -4.88 129.75 C-5.78 129.33 -6.68 128.91 -7.62 128.48 C-10.24 126.85 -10.93 125.84 -12 123 C-13.13 120.35 -13.7 119.2 -16.12 117.56 C-18 116 -18 116 -18.25 113.31 C-18.17 112.55 -18.09 111.79 -18 111 C-17.01 111 -16.02 111 -15 111 C-13.28 112.9 -13.28 112.9 -11.5 115.38 C-9.39 118.29 -8.04 119.98 -5 122 C-5.65 121.05 -6.3 120.09 -6.97 119.11 C-7.81 117.85 -8.66 116.58 -9.5 115.31 C-9.93 114.69 -10.36 114.06 -10.8 113.42 C-13.16 109.84 -14.61 107.45 -14 103 C-10.12 104.52 -8.26 106.86 -5.75 110.12 C-5.04 111.04 -4.34 111.95 -3.61 112.88 C-3.34 113.23 -3.34 113.23 -2 115 C-2.59 110.72 -4.11 107.7 -6.31 104 C-6.91 102.99 -7.5 101.98 -8.11 100.94 C-10 98 -10 98 -12.21 95.33 C-14.46 92.39 -14.34 90.61 -14 87 C-6.03 93.44 -0.81 99.42 3 109 C3.33 109.66 3.66 110.32 4 111 C6.13 108.87 5.75 104.51 6.06 101.56 C6.15 100.72 6.24 99.88 6.33 99.01 C7.18 90.33 7.19 81.71 7 73 C6.4 72.75 6.4 72.75 3.34 71.5 C-7.69 66.85 -16.97 62.65 -23.23 51.93 C-24.38 49.05 -23.94 46.89 -23 44 C-19.28 45.24 -18.95 46.35 -16.94 49.62 C-13.23 55.12 -8.87 58.9 -3 62 C-2.01 62 -1.02 62 0 62 C-0.63 61.52 -1.25 61.04 -1.9 60.54 C-2.72 59.91 -3.53 59.28 -4.38 58.62 C-5.19 58 -6 57.37 -6.84 56.73 C-9 55 -9 55 -11 53 C-11 52.01 -11 51.02 -11 50 C-4.61 50.16 -1.34 53.78 3 58 C-3.26 46.79 -11.21 42.33 -23 38 C-22.67 39.65 -22.34 41.3 -22 43 C-22.66 43.16 -22.66 43.16 -26 44 C-26 43.34 -26 42.68 -26 42 C-26.66 42 -27.32 42 -28 42 C-28.19 40.52 -28.38 39.04 -28.56 37.56 C-28.61 37.15 -28.61 37.15 -28.88 35.07 C-28.92 34.38 -28.96 33.7 -29 33 C-28.84 32.84 -28.84 32.84 -28 32 C-16.33 32.38 -7.45 36.82 0.84 44.91 C2.8 46.81 4.79 48.42 7 50 C4.66 30.81 4.66 30.81 -2 24 C-6.69 18.24 -10 13.71 -10 6 C-9.34 6.33 -8.68 6.66 -8 7 C-8.33 7.66 -8.66 8.32 -9 9 C-8.34 9.33 -7.68 9.66 -7 10 C-7.33 10.66 -7.66 11.32 -8 12 C-7.01 12 -6.02 12 -5 12 C-4.67 13.98 -4.34 15.96 -4 18 C-2.02 18.66 -0.04 19.32 2 20 C1.67 18.74 1.34 17.48 1 16.19 C-0.22 10.77 -0.19 5.53 0 0 Z " fill="#7E7443" transform="translate(244,42)"/>
<path d="M0 0 C0.63 11.81 -4.92 20.81 -12 30 C-9.27 29.89 -6.54 29.76 -3.81 29.62 C-3.43 29.61 -3.43 29.61 -1.48 29.53 C6.55 29.12 6.55 29.12 10 27 C11.81 24.32 11.81 24.32 13.44 21.12 C16.16 16.18 17.98 13.51 23 11 C23.99 10.34 24.98 9.68 26 9 C26.99 9.66 27.98 10.32 29 11 C28.75 11.24 28.75 11.24 27.5 12.43 C26.86 13.05 26.22 13.67 25.56 14.31 C24.92 14.93 24.29 15.54 23.63 16.18 C22 18 22 18 21 21 C21.61 20.49 22.23 19.99 22.86 19.47 C23.67 18.82 24.48 18.17 25.31 17.5 C26.11 16.85 26.91 16.2 27.74 15.53 C30 14 30 14 33 14 C31.47 17.44 29.4 20.12 27 23 C35.68 17.88 40.52 11.96 45 3 C44.01 2.67 43.02 2.34 42 2 C42.66 1.34 43.32 0.68 44 0 C44 -0.33 44 -0.66 44 -1 C45.65 -1 47.3 -1 49 -1 C49.62 4.57 49.75 8.72 46.25 13.31 C45.18 14.55 44.1 15.78 43 17 C42.4 17.85 41.8 18.69 41.19 19.56 C36.92 24.32 32.24 28.44 26 30 C30.95 30.33 35.9 30.66 41 31 C41 31.66 41 32.32 41 33 C41.54 33.02 41.54 33.02 44.25 33.11 C45.69 33.18 47.13 33.25 48.56 33.31 C49.27 33.34 49.97 33.36 50.7 33.38 C55.76 33.64 59.45 34.77 64 37 C64 37.99 64 38.98 64 40 C57.97 39.49 51.98 38.93 46 38 C53.6 43.4 60.92 44.2 70 45 C70 46.32 70 47.64 70 49 C56.47 49.7 48.6 47.11 37.54 39.49 C32.63 36.62 27.24 36.74 21.69 36.44 C21.32 36.42 21.32 36.42 19.44 36.31 C17.63 36.2 15.81 36.1 14 36 C14 36.99 14 37.98 14 39 C14.66 39 15.32 39 16 39 C16.04 39.58 16.08 40.16 16.12 40.75 C17 43 17 43 19.94 44.94 C23.21 47.14 23.97 48.29 25 52 C24.05 51.13 23.1 50.27 22.12 49.38 C17.78 45.63 12.97 42.82 8 40 C12.57 44.7 12.57 44.7 15.31 46.62 C15.87 47.08 16.43 47.53 17 48 C17 48.99 17 49.98 17 51 C10.61 50.84 7.34 47.22 3 43 C6.42 50.06 12.9 54.98 20 58 C19.67 59.32 19.34 60.64 19 62 C12.71 62 9.18 59.46 4.44 55.46 C0.48 51.46 -2.23 46.87 -5 42 C-7 39 -7 39 -8.79 38.57 C-20.21 38.55 -31.44 41.86 -42 46 C-41.34 46.66 -40.68 47.32 -40 48 C-40.33 48.33 -40.66 48.66 -41 49 C-40.01 49.66 -39.02 50.32 -38 51 C-40.64 51 -43.28 51 -46 51 C-46 51.66 -46 52.32 -46 53 C-45.01 53.1 -44.02 53.21 -43 53.31 C-38.72 53.91 -35 55.39 -31 57 C-31 57.99 -31 58.98 -31 60 C-37.93 60.77 -42.9 58.09 -49 55 C-40.44 64.01 -28.73 64.42 -17 66 C-17.17 66.5 -17.17 66.5 -18 69 C-31.92 69.7 -41.79 68.74 -53.31 60.12 C-56.54 57.76 -57.59 57.03 -61.69 56.75 C-65.78 58.29 -68.58 60.28 -72 63 C-72 62.34 -72 61.68 -72 61 C-73.98 60.67 -75.96 60.34 -78 60 C-70.42 51.66 -60.89 46.68 -50.69 42.19 C-49.63 41.71 -48.57 41.23 -47.48 40.74 C-39.56 37.19 -39.56 37.19 -36.25 36.07 C-34 35 -34 35 -32.63 31.59 C-32.26 30.19 -31.9 28.78 -31.56 27.38 C-28.53 16.49 -22.73 8.56 -12.82 2.71 C-4.66 -1.45 -4.66 -1.45 0 0 Z M-18.27 13.19 C-21.86 17.13 -25.18 20.92 -27 26 C-26.67 26.99 -26.34 27.98 -26 29 C-25.46 28.22 -24.91 27.44 -24.36 26.63 C-23.64 25.62 -22.92 24.61 -22.19 23.56 C-21.48 22.55 -20.77 21.54 -20.04 20.5 C-18 18 -18 18 -15 17 C-17.35 21.93 -19.86 26.52 -23 31 C-15.94 27.92 -10.38 21.8 -7.44 14.75 C-6.2 11.37 -5.85 8.59 -6 5 C-10.13 5 -15.5 10.52 -18.27 13.19 Z " fill="#7D7043" transform="translate(348,135)"/>
<path d="M0 0 C0.98 0.01 1.95 0.02 2.96 0.03 C3.33 0.03 3.33 0.03 5.19 0.06 C5.19 2.04 5.19 4.02 5.19 6.06 C3.21 6.39 1.23 6.72 -0.81 7.06 C-0.81 6.4 -0.81 5.74 -0.81 5.06 C-13.61 7.54 -25.05 12.07 -33.62 22.25 C-35.05 24.42 -35.92 26.64 -36.81 29.06 C-35.76 28.27 -34.72 27.47 -33.64 26.66 C-32.26 25.62 -30.88 24.59 -29.5 23.56 C-28.81 23.04 -28.12 22.51 -27.41 21.97 C-26.74 21.48 -26.07 20.98 -25.39 20.47 C-24.77 20.01 -24.16 19.55 -23.53 19.07 C-21.81 18.06 -21.81 18.06 -18.81 18.06 C-19.06 21.41 -20.03 22.27 -22.54 24.64 C-23.64 25.54 -24.75 26.43 -25.88 27.31 C-26.44 27.77 -27.01 28.23 -27.6 28.7 C-28.99 29.83 -30.4 30.95 -31.81 32.06 C-28.26 32.06 -26.32 31.07 -23.12 29.56 C-22.13 29.1 -21.14 28.63 -20.11 28.16 C-19.35 27.8 -18.59 27.43 -17.81 27.06 C-17.81 27.72 -17.81 28.38 -17.81 29.06 C-18.47 29.39 -19.13 29.72 -19.81 30.06 C-19.98 30.56 -19.98 30.56 -20.81 33.06 C-20.32 33.23 -20.32 33.23 -17.81 34.06 C-23.9 36.84 -29.56 39.12 -36.19 40.19 C-44.11 41.82 -49.36 46.56 -55.3 51.75 C-57.42 53.59 -59.61 55.33 -61.81 57.06 C-61.2 56.98 -61.2 56.98 -58.12 56.56 C-52.03 55.87 -45.94 55.98 -39.81 56.06 C-40.31 56.23 -40.31 56.23 -42.81 57.06 C-42.81 57.72 -42.81 58.38 -42.81 59.06 C-41.16 59.06 -39.51 59.06 -37.81 59.06 C-37.81 58.4 -37.81 57.74 -37.81 57.06 C-35.5 57.39 -33.19 57.72 -30.81 58.06 C-30.81 59.38 -30.81 60.7 -30.81 62.06 C-31.67 62.05 -32.53 62.04 -33.41 62.03 C-36.6 62 -39.79 61.97 -42.98 61.95 C-44.36 61.94 -45.74 61.93 -47.12 61.91 C-49.11 61.89 -51.09 61.88 -53.08 61.87 C-54.27 61.86 -55.47 61.85 -56.7 61.84 C-59.81 62.06 -59.81 62.06 -63.81 64.06 C-58.53 64.06 -53.25 64.06 -47.81 64.06 C-47.48 65.38 -47.15 66.7 -46.81 68.06 C-51.15 69.51 -55.56 69.45 -60.1 69.67 C-65.61 69.96 -65.61 69.96 -67.81 71.06 C-64.8 72.43 -62.37 73.12 -59.06 73.56 C-57.99 73.73 -56.92 73.89 -55.81 74.06 C-55.48 74.72 -55.15 75.38 -54.81 76.06 C-55.56 76.03 -56.3 75.99 -57.07 75.95 C-60.49 75.8 -63.9 75.71 -67.31 75.62 C-68.49 75.57 -69.66 75.51 -70.87 75.45 C-76.65 75.33 -80.76 75.31 -85.28 79.19 C-86.49 80.45 -87.67 81.74 -88.81 83.06 C-89.86 84.13 -90.92 85.2 -91.97 86.27 C-92.95 87.32 -93.91 88.38 -94.88 89.44 C-95.39 89.99 -95.9 90.55 -96.42 91.12 C-100.01 95.07 -103.35 99.15 -106.51 103.45 C-107.81 105.06 -107.81 105.06 -109.81 106.06 C-109.48 106.39 -109.15 106.72 -108.81 107.06 C-106.84 106.8 -104.86 106.53 -102.89 106.25 C-100.37 106.02 -98.24 106.38 -95.81 107.06 C-95.81 107.72 -95.81 108.38 -95.81 109.06 C-98.04 110.18 -99.4 110.19 -101.88 110.31 C-107.3 110.83 -111.28 113.16 -115.81 116.06 C-112.1 116.33 -109.47 116.06 -106.12 114.5 C-102.81 113.06 -102.81 113.06 -99.81 114.06 C-100.74 117.5 -101.39 118.8 -104.46 120.72 C-108.17 122.21 -110.78 122.3 -114.75 122.25 C-121.13 122.61 -121.13 122.61 -123.96 124.48 C-125.8 126.57 -127.29 128.73 -128.81 131.06 C-130 132.68 -131.19 134.31 -132.4 135.91 C-133.58 137.5 -134.74 139.11 -135.89 140.72 C-136.53 141.49 -137.16 142.27 -137.81 143.06 C-138.47 143.06 -139.13 143.06 -139.81 143.06 C-141.52 144.69 -143.19 146.35 -144.81 148.06 C-144.81 130.43 -120.7 108.04 -109.54 95.48 C-104.92 90.22 -104.92 90.22 -103.81 87.06 C-104.14 86.4 -104.47 85.74 -104.81 85.06 C-104.91 83.56 -104.94 82.06 -104.94 80.56 C-104.94 79.77 -104.94 78.97 -104.95 78.16 C-104.81 76.06 -104.81 76.06 -103.81 74.06 C-104.47 74.06 -105.13 74.06 -105.81 74.06 C-105.87 71.62 -105.91 69.19 -105.94 66.75 C-105.95 66.06 -105.97 65.37 -105.99 64.66 C-106.02 60.89 -105.96 59.28 -103.81 56.06 C-103.79 56.43 -103.79 56.43 -103.7 58.3 C-103.23 65.55 -101.98 72.13 -99.81 79.06 C-99.84 78.1 -99.86 77.13 -99.88 76.14 C-99.9 74.88 -99.92 73.61 -99.94 72.31 C-99.96 71.06 -99.98 69.81 -100.01 68.52 C-99.83 65.33 -99.5 63.7 -97.81 61.06 C-97.48 61.23 -97.48 61.23 -95.81 62.06 C-95.4 64.57 -95.4 64.57 -95.19 67.62 C-95.11 68.64 -95.04 69.65 -94.96 70.69 C-94.91 71.47 -94.86 72.26 -94.81 73.06 C-93.93 70.4 -93.63 68.58 -93.5 65.83 C-93.48 65.43 -93.48 65.43 -93.37 63.4 C-93.33 62.57 -93.29 61.73 -93.25 60.88 C-93.23 60.45 -93.23 60.45 -93.12 58.31 C-93.01 56.23 -92.91 54.15 -92.81 52.06 C-91.82 52.06 -90.83 52.06 -89.81 52.06 C-88.16 55.36 -88.43 59.05 -88.25 62.69 C-88.21 63.49 -88.16 64.29 -88.12 65.12 C-88.01 67.1 -87.91 69.08 -87.81 71.06 C-86.82 70.73 -85.83 70.4 -84.81 70.06 C-84.81 69.4 -84.81 68.74 -84.81 68.06 C-83.1 66.41 -83.1 66.41 -80.88 64.56 C-76.01 60.52 -75.52 57.59 -74.75 51.44 C-74.66 50.73 -74.57 50.02 -74.47 49.3 C-74.25 47.55 -74.03 45.81 -73.81 44.06 C-73.15 44.06 -72.49 44.06 -71.81 44.06 C-71.65 44.72 -71.65 44.72 -70.81 48.06 C-69.03 44.49 -69.46 40.27 -69.29 36.32 C-68.78 32.87 -67.8 30.9 -65.81 28.06 C-63.3 31.83 -63.79 34.46 -64.19 38.75 C-64.24 39.45 -64.3 40.15 -64.36 40.88 C-64.5 42.61 -64.66 44.33 -64.81 46.06 C-63.49 43.09 -62.17 40.12 -60.81 37.06 C-60.48 37.06 -60.15 37.06 -59.81 37.06 C-59.65 38.55 -59.65 38.55 -58.81 46.06 C-57.76 45.18 -56.71 44.29 -55.62 43.38 C-55.03 42.88 -54.44 42.38 -53.83 41.86 C-48.76 37.34 -45.5 33.14 -42.38 27.19 C-34.98 13.71 -25.8 5.82 -10.81 1.06 C-7.15 0.16 -3.77 -0.05 0 0 Z " fill="#7B7041" transform="translate(398.8125,48.9375)"/>
<path d="M0 0 C0.33 0 0.66 0 1 0 C1.2 0.88 1.39 1.75 1.59 2.66 C3.68 11.5 6.22 20.12 9.06 28.75 C9.4 29.8 9.74 30.84 10.09 31.92 C10.43 32.91 10.76 33.9 11.1 34.92 C11.39 35.8 11.69 36.69 11.99 37.6 C13.04 40.08 14.38 41.86 16 44 C18.34 51.53 18.37 59.08 18.37 66.9 C18.37 69.03 18.41 71.17 18.45 73.3 C18.66 99.54 7.48 122.97 -10 142 C-10.74 142.82 -11.48 143.65 -12.25 144.5 C-24.55 157.52 -40.96 166.2 -57.75 171.94 C-58.6 172.23 -59.45 172.53 -60.33 172.83 C-80.78 179.47 -104.81 176.42 -125.94 174.62 C-126.7 174.56 -127.47 174.5 -128.26 174.43 C-130.46 174.25 -132.65 174.05 -134.84 173.85 C-135.47 173.79 -135.47 173.79 -138.66 173.5 C-141.75 173.04 -144.18 172.3 -147 171 C-147 170.67 -147 170.34 -147 170 C-148.65 169.67 -150.3 169.34 -152 169 C-152 168.67 -152 168.34 -152 168 C-125.17 167.62 -125.17 167.62 -113.81 169 C-89.65 171.82 -67.2 170.3 -45 160 C-43.89 159.49 -42.78 158.97 -41.64 158.45 C-20.01 147.63 -2.75 127.39 6 105 C6.37 104.06 6.74 103.12 7.12 102.14 C17.35 73.87 10.51 46.2 2 18.62 C1.8 17.97 1.6 17.32 1.4 16.65 C0.86 14.87 0.31 13.1 -0.24 11.32 C-1.05 7.76 -1.2 4.64 -1 1 C-0.67 0.67 -0.34 0.34 0 0 Z " fill="#722F1D" transform="translate(241,283)"/>
<path d="M0 0 C2.56 1.12 2.56 1.12 3.52 2.8 C4.93 6.49 5.95 10.22 6.56 14.12 C6.87 13.88 6.87 13.88 8.44 12.62 C10.56 11.12 10.56 11.12 12.56 11.12 C12.74 15.67 12.56 19 10.56 23.12 C9.9 23.12 9.24 23.12 8.56 23.12 C7.9 25.1 7.24 27.09 6.56 29.12 C7.88 28.8 9.2 28.47 10.56 28.12 C10.56 27.47 10.56 26.81 10.56 26.12 C13.39 25.4 15.11 24.98 17.94 25.88 C21.6 26.22 23.16 24.7 26.01 22.55 C27.56 21.12 27.56 21.12 29.56 18.12 C30.22 18.12 30.88 18.12 31.56 18.12 C31.23 20.44 30.9 22.75 30.56 25.12 C31.66 25.06 32.75 25 33.88 24.94 C37.56 25.12 37.56 25.12 39.5 26.62 C39.85 27.12 40.2 27.62 40.56 28.12 C39.17 31.98 37.35 35.11 35.06 38.5 C32.32 42.71 30.55 46.21 29.56 51.12 C28.9 51.12 28.24 51.12 27.56 51.12 C27.23 53.1 26.9 55.09 26.56 57.12 C25.23 57.12 23.9 57.12 22.56 57.12 C21.93 47.12 25.55 40.54 30.56 32.12 C28.91 32.12 27.26 32.12 25.56 32.12 C25.29 32.86 25.02 33.6 24.75 34.36 C23.61 37.02 22.32 39.04 20.62 41.38 C16.45 47.5 14.5 53.79 13.56 61.12 C12.57 61.12 11.58 61.12 10.56 61.12 C8.25 63.44 9.38 69.08 9.38 72.19 C9.37 72.65 9.37 72.65 9.34 75.01 C9.33 80.76 10.02 85.59 11.56 91.12 C11.72 93.49 11.66 95.75 11.56 98.12 C11.23 98.29 11.23 98.29 9.56 99.12 C3.47 76.82 4.85 55.6 16.17 35.51 C16.4 35.12 16.4 35.12 17.56 33.12 C12.09 37.18 9.26 40.86 6.56 47.12 C5.9 47.12 5.24 47.12 4.56 47.12 C3.9 47.78 3.24 48.44 2.56 49.12 C1.57 49.12 0.58 49.12 -0.44 49.12 C0.55 46.16 1.54 43.19 2.56 40.12 C1.78 40.6 1 41.07 0.19 41.56 C-1.33 42.46 -2.86 43.34 -4.44 44.12 C-4.44 43.47 -4.44 42.81 -4.44 42.12 C-4.77 41.96 -4.77 41.96 -6.44 41.12 C-5.96 40.71 -5.49 40.3 -5 39.88 C-3.22 37.88 -2.97 36.71 -2.44 34.12 C-2.11 33.38 -1.78 32.64 -1.44 31.88 C-0.13 28.28 0.14 24.93 0.56 21.12 C0.86 19.78 1.18 18.44 1.56 17.12 C0.9 17.12 0.24 17.12 -0.44 17.12 C-0.44 15.15 -0.44 13.16 -0.44 11.12 C-1.1 11.12 -1.76 11.12 -2.44 11.12 C-2.7 11.86 -2.96 12.59 -3.22 13.35 C-8.11 24.52 -19.55 30.75 -30.38 35 C-35.69 36.95 -40.01 38.26 -45.69 38.19 C-46.58 38.18 -47.47 38.17 -48.39 38.16 C-49.07 38.15 -49.74 38.14 -50.44 38.12 C-50.6 37.3 -50.6 37.3 -51.44 33.12 C-50.74 33.02 -50.03 32.91 -49.31 32.79 C-43.41 31.81 -37.92 30.58 -32.44 28.12 C-31.35 27.66 -30.27 27.2 -29.15 26.73 C-18.07 21.79 -10.85 14.86 -5.41 3.94 C-3.94 1.21 -3.17 0.16 0 0 Z " fill="#723E29" transform="translate(229.4375,187.875)"/>
<path d="M0 0 C0.98 0.01 1.97 0.02 2.98 0.03 C3.36 0.03 3.36 0.03 5.25 0.06 C5.25 0.72 5.25 1.38 5.25 2.06 C5.97 2 6.69 1.94 7.44 1.88 C10.83 2.1 12.57 3 15.25 5.06 C15.25 6.05 15.25 7.04 15.25 8.06 C15.91 8.06 16.57 8.06 17.25 8.06 C20.37 14.11 19.94 21.6 18.25 28.06 C16.81 29.94 16.81 29.94 15.25 31.06 C14.59 31.06 13.93 31.06 13.25 31.06 C13.25 32.38 13.25 33.7 13.25 35.06 C5.91 38.81 -0.96 39.07 -8.89 36.82 C-12.87 35.2 -15.88 32.73 -17.89 28.86 C-18.97 25.34 -19.05 22.24 -19.06 18.56 C-19.08 17.27 -19.1 15.98 -19.11 14.66 C-18.6 9.63 -16.69 6.48 -12.81 3.31 C-8.43 0.09 -5.37 -0.06 0 0 Z " fill="#F6A213" transform="translate(141.75,334.9375)"/>
<path d="M0 0 C0.33 0 0.66 0 1 0 C1.05 4.21 1.09 8.43 1.11 12.64 C1.12 14.07 1.13 15.5 1.15 16.93 C1.5 45.8 -10.98 72.36 -30.98 93.08 C-39.55 101.58 -49.38 108.33 -60 114 C-60.72 114.4 -61.43 114.8 -62.17 115.21 C-68.67 118.67 -75.57 121.26 -83 121 C-83.33 120.34 -83.66 119.68 -84 119 C-79.7 116.14 -75.18 115.79 -70.15 114.88 C-67 114 -67 114 -65 111 C-62.38 110.81 -62.38 110.81 -60 111 C-59.67 109.35 -59.34 107.7 -59 106 C-53.25 104 -53.25 104 -51 104 C-50.6 103.67 -50.6 103.67 -48.56 102 C-46 100 -46 100 -43 100 C-42.79 99.09 -42.59 98.19 -42.38 97.25 C-40.65 93.16 -38.78 92.22 -35 90 C-34.09 89.26 -33.19 88.51 -32.25 87.75 C-30 86 -30 86 -28 86 C-27.75 85.26 -27.49 84.53 -27.23 83.77 C-27.06 83.28 -27.06 83.28 -26.19 80.81 C-25.85 79.85 -25.51 78.89 -25.17 77.89 C-24.02 75.04 -22.59 72.62 -21 70 C-20.32 68.34 -19.66 66.67 -19 65 C-17.55 62.04 -16.06 59.11 -14.57 56.17 C-11.58 50.28 -9.52 44.6 -7.94 38.19 C-7.76 37.51 -7.59 36.84 -7.41 36.15 C-5.33 27.82 -4.8 19.55 -4.44 11 C-4.42 10.52 -4.42 10.52 -4.31 8.07 C-4.2 5.72 -4.1 3.36 -4 1 C-3.01 1.66 -2.02 2.32 -1 3 C-0.67 2.01 -0.34 1.02 0 0 Z " fill="#693423" transform="translate(285,358)"/>
<path d="M0 0 C0 0.66 0 1.32 0 2 C0.99 2.33 1.98 2.66 3 3 C0.95 5.22 -0.91 6.63 -3.62 7.95 C-4.33 8.3 -5.03 8.65 -5.75 9.01 C-6.49 9.38 -7.23 9.74 -8 10.12 C-15.47 13.97 -21.81 18.27 -28 24 C-28.84 24.75 -29.68 25.49 -30.54 26.26 C-47.9 42.52 -58.26 65.76 -62 89 C-62.99 88.34 -63.98 87.68 -65 87 C-67.19 87.38 -67.19 87.38 -69 88 C-68.86 86.52 -68.71 85.04 -68.56 83.56 C-68.48 82.74 -68.4 81.92 -68.32 81.07 C-68 79 -68 79 -67 78 C-66.81 76.7 -66.63 75.4 -66.44 74.06 C-62.76 55.04 -50.69 38.1 -38 24 C-37.42 23.33 -36.83 22.67 -36.23 21.98 C-30.7 16.01 -23.69 11.57 -17 7 C-15.94 6.28 -14.88 5.55 -13.79 4.81 C-9.26 1.87 -5.52 0 0 0 Z " fill="#693423" transform="translate(86,231)"/>
<path d="M0 0 C2 2 2 2 2.2 3.95 C2.13 5.96 2.07 7.98 2 10 C1.01 10.33 0.02 10.66 -1 11 C-1.66 11.66 -2.32 12.32 -3 13 C-3 10.36 -3 7.72 -3 5 C-6.82 6.89 -10.61 8.78 -14.33 10.86 C-23.94 16.08 -33.68 19.23 -44.24 22.03 C-58.68 25.97 -71.69 32.88 -79.5 46.02 C-84.79 56.5 -86.11 66.82 -86.56 78.38 C-86.61 79.4 -86.65 80.42 -86.69 81.47 C-86.8 83.98 -86.9 86.49 -87 89 C-87.33 89 -87.66 89 -88 89 C-88.17 85.53 -88.17 85.53 -89 68 C-89.33 68.16 -89.33 68.16 -91 69 C-90.74 55.87 -87.06 44.67 -78 35 C-77.38 34.32 -76.75 33.65 -76.11 32.95 C-65.51 22.53 -51.86 18.46 -37.88 14.65 C-28.24 11.95 -19.72 8.01 -11.13 2.89 C-7.17 0.54 -4.66 -0.65 0 0 Z " fill="#623626" transform="translate(188,290)"/>
<path d="M0 0 C1.27 3.81 0.47 5.24 -0.81 9 C-8.25 30.92 -6.14 54.39 -0.63 76.47 C2.79 90.21 4.17 102.87 4 117 C3.67 117.16 3.67 117.16 2 118 C1.99 117.4 1.99 117.4 1.92 114.39 C1.87 112.82 1.81 111.25 1.75 109.69 C1.74 108.9 1.72 108.12 1.71 107.31 C1.61 105.13 1.49 103.12 1 101 C-0.31 99.97 -1.65 98.97 -3 98 C-3.84 95.09 -4.44 92.41 -4.94 89.44 C-5.26 87.62 -5.59 85.8 -5.92 83.98 C-6.09 83.01 -6.26 82.04 -6.44 81.04 C-7.02 77.91 -7.68 74.81 -8.36 71.7 C-12.94 50.52 -16.82 22.75 -5 3 C-2.31 1.12 -2.31 1.12 0 0 Z " fill="#693423" transform="translate(234,234)"/>
<path d="M0 0 C0.33 0 0.66 0 1 0 C1.06 0.95 1.13 1.9 1.19 2.88 C1.96 12.01 3.75 20.58 6.31 29.38 C6.6 30.36 6.88 31.34 7.17 32.36 C8.97 38.32 11.18 43.92 13.85 49.54 C16.39 54.95 18.47 60.55 20.55 66.15 C20.82 66.88 21.09 67.6 21.37 68.35 C21.91 69.81 22.45 71.27 22.98 72.73 C24.89 77.89 24.89 77.89 26 79 C26.24 81.53 26.42 84.03 26.56 86.56 C26.61 87.27 26.65 87.98 26.69 88.72 C26.8 90.48 26.9 92.24 27 94 C26.34 94 25.68 94 25 94 C24.67 94.99 24.34 95.98 24 97 C21.89 91.44 19.94 85.86 18.24 80.16 C16.17 73.25 13.68 66.86 10.54 60.34 C7.93 54.68 5.84 48.84 3.72 42.98 C3.02 41.06 2.3 39.14 1.58 37.22 C-2.91 25.09 -4.31 14.89 -4 2 C-3.01 2.33 -2.02 2.66 -1 3 C-1.19 3.64 -1.37 4.28 -1.56 4.94 C-1.63 5.28 -1.63 5.28 -2 7 C-1.67 7.33 -1.34 7.66 -1 8 C-0.67 5.36 -0.34 2.72 0 0 Z " fill="#693423" transform="translate(254,247)"/>
<path d="M0 0 C0.33 0 0.66 0 1 0 C1.33 4.95 1.66 9.9 2 15 C2.66 14.67 3.32 14.34 4 14 C6.38 27.78 2.88 40.17 -5.06 51.61 C-13.36 61.84 -24.06 67.93 -36.62 71.38 C-38.64 71.95 -40.66 72.54 -42.67 73.12 C-43.71 73.42 -44.74 73.72 -45.81 74.03 C-49.07 75.02 -52.29 76.1 -55.52 77.22 C-56.05 77.41 -56.05 77.41 -58.74 78.34 C-60.78 79.05 -62.81 79.78 -64.84 80.51 C-70.84 82.59 -75.65 83.37 -82 83 C-81.83 82.67 -81.83 82.67 -81 81 C-79 80.33 -77 79.67 -75 79 C-74.68 78.76 -74.68 78.76 -73.08 77.54 C-70.91 75.93 -69.1 75.16 -66.54 74.32 C-66.11 74.17 -66.11 74.17 -63.94 73.45 C-63.03 73.16 -62.12 72.86 -61.19 72.56 C-60.25 72.25 -59.31 71.95 -58.35 71.63 C-52.89 69.86 -47.43 68.28 -41.88 66.88 C-28.73 63.49 -15.9 57.46 -8 46 C-6.06 42.43 -4.42 38.81 -3 35 C-2.64 34.03 -2.28 33.06 -1.9 32.06 C-0.25 26.09 -0.52 19.72 -0.38 13.56 C-0.34 12.26 -0.3 10.95 -0.26 9.61 C-0.16 6.41 -0.08 3.2 0 0 Z " fill="#623626" transform="translate(182,329)"/>
<path d="M0 0 C0.99 0 1.98 0 3 0 C1.29 13.76 -11.76 26.17 -22.02 34.68 C-30.68 41.32 -40.07 46.51 -50 51 C-50.4 51.19 -50.4 51.19 -52.43 52.17 C-65.4 58 -79.93 59.76 -94 59 C-94.66 57.68 -95.32 56.36 -96 55 C-94.27 53.27 -92 53.83 -89.68 53.76 C-63.08 52.89 -36.61 42.11 -18 23 C-17.1 22.09 -16.21 21.18 -15.29 20.24 C-10.23 14.91 -6.07 9.41 -2.28 3.12 C-1 1 -1 1 0 0 Z " fill="#812D16" transform="translate(256,412)"/>
<path d="M0 0 C0 0.99 0 1.98 0 3 C-0.66 3.66 -1.32 4.32 -2 5 C-1.62 7.12 -1.62 7.12 -1 9 C-12.04 20.26 -26.05 27.46 -41 32 C-41.91 32.31 -42.82 32.62 -43.76 32.94 C-51.71 35.58 -59.55 37.04 -67.84 38.01 C-69.9 38.25 -71.95 38.51 -74 38.77 C-80.03 39.52 -85.91 40.09 -92 40 C-91.67 39.01 -91.34 38.02 -91 37 C-90.34 37 -89.68 37 -89 37 C-88.67 36.01 -88.34 35.02 -88 34 C-87.57 33.95 -87.57 33.95 -85.42 33.71 C-53.35 30.05 -53.35 30.05 -40 25 C-39.34 24.75 -38.67 24.5 -37.99 24.24 C-23.51 18.65 -11.13 10.85 0 0 Z " fill="#693423" transform="translate(226,224)"/>
<path d="M0 0 C1.4 0 2.79 0.01 4.19 0.01 C7.82 0.02 11.45 0.04 15.08 0.06 C18.8 0.08 22.52 0.09 26.24 0.1 C33.51 0.12 40.78 0.15 48.05 0.2 C48.05 0.53 48.05 0.86 48.05 1.2 C41.78 1.53 35.51 1.86 29.05 2.2 C29.05 2.86 29.05 3.52 29.05 4.2 C34.99 4.2 40.93 4.2 47.05 4.2 C47.05 4.86 47.05 5.52 47.05 6.2 C46.42 6.2 45.79 6.21 45.14 6.22 C38.5 6.31 31.86 6.41 25.23 6.51 C22.76 6.55 20.29 6.59 17.82 6.62 C0.81 6.84 -15.37 7.4 -31.89 11.82 C-32.78 12.05 -33.66 12.28 -34.58 12.52 C-36.7 13.07 -38.83 13.63 -40.95 14.2 C-40.95 13.54 -40.95 12.88 -40.95 12.2 C-41.61 11.87 -42.27 11.54 -42.95 11.2 C-42.95 10.54 -42.95 9.88 -42.95 9.2 C-43.61 8.87 -44.27 8.54 -44.95 8.2 C-42.21 7.22 -39.46 6.27 -36.7 5.32 C-35.95 5.05 -35.19 4.78 -34.41 4.5 C-23.04 0.62 -11.95 -0.09 0 0 Z " fill="#733F2D" transform="translate(128.953125,221.8046875)"/>
<path d="M0 0 C2 0.89 2 0.89 3.23 2.97 C7.37 14.78 7.27 24.68 5 36.89 C4.78 38.33 4.57 39.76 4.37 41.2 C4.25 42.09 4.12 42.98 4 43.89 C3.01 43.89 2.02 43.89 1 43.89 C0.67 41.25 0.34 38.61 -0 35.89 C-1.32 38.86 -2.64 41.83 -4 44.89 C-4.33 44.89 -4.66 44.89 -5 44.89 C-4.96 44.32 -4.96 44.32 -4.75 41.46 C-4.65 39.98 -4.54 38.5 -4.44 37.02 C-4.41 36.64 -4.41 36.64 -4.27 34.75 C-3.89 29.12 -3.89 29.12 -5 26.89 C-7.7 31.31 -7.43 35.85 -7.66 40.89 C-8 43.89 -8 43.89 -10 46.89 C-13.87 38.69 -12.86 28.62 -10.01 20.2 C-8.92 17.7 -7.61 15.46 -6.19 13.14 C-3.92 9.33 -3.92 9.33 -4.69 5.33 C-5.12 4.52 -5.56 3.72 -6 2.89 C-2.61 -0.14 -2.61 -0.14 0 0 Z " fill="#958C57" transform="translate(338.00390625,51.109375)"/>
<path d="M0 0 C-0.66 1.98 -1.32 3.96 -2 6 C-2.17 5.67 -2.17 5.67 -3 4 C-4.65 4 -6.3 4 -8 4 C-8.09 4.33 -8.09 4.33 -8.56 6 C-13.49 16.29 -23.48 23.39 -33.84 27.47 C-36 28 -36 28 -39 27 C-38.01 26.25 -37.03 25.5 -36.01 24.73 C-34.71 23.74 -33.42 22.75 -32.12 21.75 C-31.47 21.26 -30.82 20.77 -30.15 20.26 C-29.53 19.78 -28.9 19.29 -28.26 18.8 C-27.68 18.36 -27.11 17.92 -26.51 17.46 C-24.79 15.8 -23.95 14.18 -23 12 C-29.57 15.37 -35.3 19.32 -41 24 C-41.33 23.01 -41.66 22.02 -42 21 C-35.71 10.13 -26.09 4.33 -14.81 -0.31 C-9.75 -1.55 -5.03 -1.22 0 0 Z " fill="#989155" transform="translate(403,55)"/>
<path d="M0 0 C0.99 0 1.98 0 3 0 C2.85 7.04 -0.25 10.99 -5 16 C-18.31 28.7 -37.18 37.29 -55.88 37.06 C-56.84 37.05 -57.81 37.04 -58.8 37.04 C-59.53 37.02 -60.25 37.01 -61 37 C-61 36.34 -61 35.68 -61 35 C-62.32 34.34 -63.64 33.68 -65 33 C-64.24 32.87 -63.48 32.74 -62.7 32.6 C-59.19 32 -55.69 31.37 -52.19 30.75 C-50.99 30.55 -49.8 30.34 -48.56 30.13 C-32.42 27.23 -15.11 21.14 -5.06 7.34 C-3.86 5.56 -2.68 3.76 -1.54 1.94 C-1.29 1.62 -1.29 1.62 0 0 Z " fill="#5D3424" transform="translate(228,205)"/>
<path d="M0 0 C0.14 0.64 0.29 1.28 0.44 1.94 C1 4 1 4 2 5 C3.32 4.34 4.64 3.68 6 3 C10.36 7.65 13.37 12.21 16 18 C16.36 18.56 16.72 19.12 17.09 19.7 C18.51 23.28 18.29 26.81 18.25 30.62 C18.26 31.4 18.27 32.18 18.27 32.98 C18.25 38.75 18.25 38.75 16 41 C15.73 39.71 15.47 38.42 15.2 37.1 C14.84 35.42 14.48 33.74 14.12 32.06 C13.95 31.21 13.78 30.36 13.6 29.49 C13.42 28.68 13.25 27.87 13.07 27.04 C12.99 26.66 12.99 26.66 12.59 24.77 C12 23 12 23 10 22 C10.14 23.02 10.29 24.05 10.44 25.11 C10.63 26.47 10.81 27.83 11 29.19 C11.1 29.86 11.19 30.53 11.29 31.23 C11.78 34.85 12.11 38.35 12 42 C3.79 34.54 2.46 21.44 0 11 C-0.33 14.63 -0.66 18.26 -1 22 C-1.33 22 -1.66 22 -2 22 C-2.19 14.34 -2.35 7.34 0 0 Z " fill="#A0985F" transform="translate(234,20)"/>
<path d="M0 0 C13.02 -0.37 25.26 0.22 38 3 C39.01 3.22 40.02 3.43 41.06 3.66 C46.87 5.14 51.73 7.72 56 12 C56 12.66 56 13.32 56 14 C54.35 14.33 52.7 14.66 51 15 C51 15.99 51 16.98 51 18 C51.66 18.66 52.32 19.32 53 20 C49 20.96 45.29 21.1 41.19 21.06 C40.03 21.05 38.86 21.04 37.67 21.04 C36.79 21.02 35.91 21.01 35 21 C35 20.67 35 20.34 35 20 C38.3 20 41.6 20 45 20 C44.83 19.5 44.83 19.5 44 17 C43.11 16.93 42.21 16.85 41.29 16.77 C32.84 15.85 26.87 14.04 20 9 C23.18 7.97 25.17 8.08 28.38 8.94 C32.01 9.83 35.24 10.19 39 10 C38 8 38 8 35.46 6.95 C31.52 5.87 27.68 5.32 23.62 4.88 C22.89 4.79 22.15 4.7 21.39 4.61 C19.6 4.4 17.8 4.2 16 4 C16 3.34 16 2.68 16 2 C11.05 2 6.1 2 1 2 C0.67 1.34 0.34 0.68 0 0 Z " fill="#9E935D" transform="translate(373,164)"/>
<path d="M0 0 C1.07 -0 2.15 -0.01 3.26 -0.01 C8.99 -0 14.51 0.26 20.19 1.12 C18.87 1.46 17.55 1.78 16.19 2.12 C16.19 2.78 16.19 3.44 16.19 4.12 C17.84 4.12 19.49 4.12 21.19 4.12 C21.19 4.46 21.19 4.78 21.19 5.12 C14.23 5.91 7.31 6.33 0.31 6.56 C-8.25 6.89 -16.74 7.5 -25.25 8.46 C-29.81 8.97 -34.23 9.22 -38.81 9.12 C-38.81 8.47 -38.81 7.81 -38.81 7.12 C-39.47 6.79 -40.13 6.47 -40.81 6.12 C-40.81 5.47 -40.81 4.81 -40.81 4.12 C-27.1 1.11 -14.05 0.05 0 0 Z " fill="#693423" transform="translate(150.8125,237.875)"/>
<path d="M0 0 C0.33 0.66 0.66 1.32 1 2 C2.96 2.58 4.94 3.06 6.94 3.5 C12.78 4.78 12.78 4.78 15 7 C14.01 7.33 13.02 7.66 12 8 C12 7.34 12 6.68 12 6 C10.35 6.66 8.7 7.32 7 8 C7.8 8.38 8.59 8.75 9.41 9.14 C15.21 11.94 20.31 14.57 25 19 C24.34 20.65 23.68 22.3 23 24 C24.65 24 26.3 24 28 24 C24.16 26.57 20.19 26.23 15.75 26.12 C15 26.12 14.26 26.11 13.49 26.1 C11.66 26.07 9.83 26.04 8 26 C8 25.67 8 25.34 8 25 C12.29 25 16.58 25 21 25 C21 24.34 21 23.68 21 23 C19.84 22.85 18.68 22.71 17.48 22.55 C7.93 21.23 -0.97 19.77 -9 14 C-9.33 13.01 -9.66 12.02 -10 11 C-9.45 11.19 -8.91 11.39 -8.35 11.59 C-2.96 13.45 2.41 14.88 8 16 C7.67 15.01 7.34 14.02 7 13 C4.62 12.12 2.39 11.43 -0.06 10.81 C-0.73 10.64 -1.39 10.46 -2.07 10.28 C-3.71 9.84 -5.36 9.42 -7 9 C-7 8.34 -7 7.68 -7 7 C-5.68 6.34 -4.36 5.68 -3 5 C-3 3 -3 3 -4 1 C-2 0 -2 0 0 0 Z " fill="#9D925E" transform="translate(309,179)"/>
<path d="M0 0 C-0.33 0.48 -0.65 0.97 -0.99 1.47 C-5.89 8.98 -8.48 14.95 -8 24 C-6.68 23.34 -5.36 22.68 -4 22 C-4.33 27.61 -4.66 33.22 -5 39 C-6.67 37.33 -8.33 35.67 -10 34 C-9.62 31.88 -9.62 31.88 -9 30 C-9.66 29.67 -10.32 29.34 -11 29 C-11.06 30.09 -11.12 31.19 -11.19 32.31 C-12 36 -12 36 -14.5 37.62 C-14.91 37.85 -14.91 37.85 -17 39 C-17.81 41.69 -17.81 41.69 -18 44 C-18.33 44 -18.66 44 -19 44 C-19.53 29.56 -17.7 18.53 -10 6 C-9.6 5.35 -9.2 4.69 -8.79 4.02 C-6.1 -0.22 -4.89 -1.47 0 0 Z " fill="#AD5B3C" transform="translate(261,220)"/>
<path d="M0 0 C1.12 -0.02 2.23 -0.04 3.38 -0.06 C9.96 -0.09 14.9 0.47 20.88 3.25 C16.82 9.64 8.96 10.89 1.94 12.5 C-5.97 13.9 -14.2 14.87 -21.12 10.25 C-18.05 8.2 -17.19 7.98 -13.68 7.84 C-12.83 7.8 -11.98 7.76 -11.11 7.72 C-10.23 7.69 -9.35 7.66 -8.44 7.62 C-7.54 7.59 -6.65 7.55 -5.73 7.51 C-3.53 7.41 -1.33 7.33 0.88 7.25 C0.55 6.26 0.21 5.27 -0.12 4.25 C-6.06 4.25 -12 4.25 -18.12 4.25 C-11.84 -0.46 -7.68 0.03 0 0 Z " fill="#9D9459" transform="translate(351.125,109.75)"/>
<path d="M0 0 C5.71 3.35 9.54 8.19 11.62 14.44 C12.81 21.83 11.51 27.09 7.34 33.27 C4.09 37.37 0.93 40.49 -4.38 41.44 C-10.09 41.89 -15.45 42.29 -20.75 39.94 C-27.32 33.68 -31.51 29.61 -31.75 20.31 C-31.78 13.82 -31.05 9.16 -26.38 4.44 C-19 -1.97 -9.19 -4.16 0 0 Z M-26.25 6.94 C-29.77 11.08 -29.54 14.54 -29.56 19.81 C-29.58 21.12 -29.59 22.43 -29.61 23.77 C-29.33 28.19 -28.77 31.01 -25.64 34.2 C-21.56 37.21 -18.58 39.22 -13.38 39.44 C-12.67 39.49 -11.97 39.54 -11.25 39.59 C-5.82 39.82 -2.21 38.91 2.62 36.44 C2.62 35.12 2.62 33.8 2.62 32.44 C3.28 32.44 3.94 32.44 4.62 32.44 C6.96 30.76 7.58 29.62 8.31 26.81 C9.42 14.85 9.42 14.85 6.62 9.44 C5.97 9.44 5.31 9.44 4.62 9.44 C4.62 8.45 4.62 7.46 4.62 6.44 C1.25 3.83 -1.14 3.07 -5.38 3.44 C-5.38 2.78 -5.38 2.12 -5.38 1.44 C-13.89 1.02 -19.59 1.15 -26.25 6.94 Z " fill="#DDA43A" transform="translate(152.375,333.5625)"/>
<path d="M0 0 C9.54 2.68 14.76 10 19.56 18.25 C19.91 18.84 20.26 19.43 20.61 20.04 C22.52 23.49 23.41 26.05 23 30 C19.66 26.92 17.09 23.49 14.46 19.8 C13 18 13 18 10 16 C11.38 20.77 13.47 24.72 16.12 28.88 C16.31 29.17 16.31 29.17 17.25 30.67 C18.16 32.12 19.08 33.56 20 35 C17 35 17 35 15.17 33.42 C10.09 27.7 6.38 21.84 3 15 C2.63 14.35 2.26 13.7 1.88 13.04 C0.75 10.42 0.58 8.08 0.38 5.25 C0.3 4.27 0.23 3.28 0.15 2.27 C0.1 1.52 0.05 0.77 0 0 Z " fill="#9F965C" transform="translate(220,129)"/>
<path d="M0 0 C2.15 4.3 1.45 9.32 0.25 13.83 C-3.27 23.92 -9.65 34.12 -19.56 39.06 C-20.37 39.37 -21.17 39.68 -22 40 C-22.66 39.34 -23.32 38.68 -24 38 C-23.01 37.34 -22.02 36.68 -21 36 C-20.57 35.24 -20.13 34.47 -19.69 33.69 C-18 31 -18 31 -15.12 28.75 C-7.94 22.99 -6.1 14.76 -5 6 C-5.54 6.43 -6.09 6.87 -6.64 7.31 C-7.36 7.87 -8.08 8.43 -8.81 9 C-9.17 9.28 -9.17 9.28 -10.96 10.69 C-13 12 -13 12 -16 12 C-15.28 7.12 -12.45 4.11 -8.62 1.19 C-5.56 -0.2 -3.33 -0.23 0 0 Z " fill="#817546" transform="translate(285,105)"/>
<path d="M0 0 C0.96 2.88 1.12 4.68 1.1 7.67 C1.09 8.56 1.09 9.45 1.09 10.37 C1.08 11.3 1.07 12.23 1.06 13.19 C1.06 14.13 1.05 15.07 1.05 16.04 C1.04 18.36 1.02 20.68 1 23 C1.4 22.52 1.8 22.05 2.21 21.55 C2.48 21.24 2.48 21.24 3.82 19.65 C4.34 19.03 4.87 18.41 5.41 17.77 C7.4 15.56 9.6 13.76 12 12 C12.66 12.33 13.32 12.66 14 13 C13.01 13.99 12.02 14.98 11 16 C11.33 16.99 11.66 17.98 12 19 C12.48 18.57 12.96 18.13 13.46 17.69 C14.09 17.13 14.72 16.57 15.38 16 C16 15.44 16.63 14.89 17.27 14.31 C19 13 19 13 21 13 C21.68 20.81 19.13 27.73 14.19 33.81 C11.14 37.1 7.73 39.54 4 42 C3.34 41.67 2.68 41.34 2 41 C3.62 38.96 5.29 36.96 7 35 C7.66 35 8.32 35 9 35 C9.99 32.03 10.98 29.06 12 26 C10.91 26.93 9.81 27.86 8.69 28.81 C8.07 29.33 7.46 29.86 6.82 30.39 C5.15 31.87 3.56 33.4 2 35 C3.64 30.22 6.27 26.21 9 22 C6.95 23.02 4.9 24.05 2.88 25.12 C1 26 1 26 -1 26 C-1.03 21.85 -1.05 17.71 -1.06 13.56 C-1.07 12.38 -1.08 11.19 -1.09 9.97 C-1.09 8.85 -1.09 7.73 -1.1 6.57 C-1.1 5.52 -1.11 4.48 -1.11 3.41 C-1 1 -1 1 0 0 Z " fill="#A29763" transform="translate(259,98)"/>
<path d="M0 0 C3.22 2.22 5.13 3.67 7.31 6.94 C7.25 8.94 7.25 8.94 6.31 10.94 C2.05 14.67 -2.34 14.25 -7.69 13.94 C-6.7 13.61 -5.71 13.28 -4.69 12.94 C-4.69 11.95 -4.69 10.96 -4.69 9.94 C-3.04 9.61 -1.39 9.28 0.31 8.94 C-9.51 -1.45 -22.04 -2.35 -35.69 -4.06 C-35.69 -4.72 -35.69 -5.38 -35.69 -6.06 C-22.45 -9.84 -11.6 -7.56 0 0 Z " fill="#82774B" transform="translate(428.6875,169.0625)"/>
<path d="M0 0 C0.99 0.66 1.98 1.32 3 2 C2.34 2 1.68 2 1 2 C0.67 3.32 0.34 4.64 0 6 C-1.65 6 -3.3 6 -5 6 C-5 6.66 -5 7.32 -5 8 C-10.36 9.93 -15.34 11.19 -21 12 C-21.66 12.66 -22.32 13.32 -23 14 C-22.01 14.66 -21.02 15.32 -20 16 C-21.98 16.33 -23.96 16.66 -26 17 C-26 16.34 -26 15.68 -26 15 C-26.82 15.07 -27.64 15.14 -28.48 15.21 C-37.12 15.9 -45.69 16.19 -54.34 16.19 C-56.46 16.19 -58.58 16.21 -60.69 16.22 C-62.07 16.23 -63.44 16.23 -64.81 16.23 C-65.42 16.23 -65.42 16.23 -68.49 16.24 C-72.24 15.98 -75.43 15.14 -79 14 C-80.98 13.45 -82.96 12.91 -84.94 12.38 C-85.9 12.11 -86.85 11.85 -87.84 11.59 C-88.55 11.39 -89.27 11.2 -90 11 C-90 10.67 -90 10.34 -90 10 C-85.12 9.71 -81.32 10.14 -76.62 11.5 C-51.74 17.64 -24.37 11.94 -1.92 0.55 C-1.29 0.37 -0.65 0.19 0 0 Z " fill="#87341E" transform="translate(225,464)"/>
<path d="M0 0 C12.12 2.71 20.03 8.83 27 19 C26.67 19.66 26.34 20.32 26 21 C25.49 20.52 24.98 20.04 24.46 19.54 C20.5 15.9 17.39 13.21 12 12 C14.16 16.09 16.53 18.51 20.19 21.31 C21.09 22.01 21.99 22.71 22.92 23.43 C23.61 23.95 24.29 24.46 25 25 C24.34 25.33 23.68 25.66 23 26 C14.51 22.49 7.52 17.1 3 9 C3 8.34 3 7.68 3 7 C0 8 0 8 -2 11 C-3.06 9.19 -3.06 9.19 -4 7 C-3.67 6.01 -3.34 5.02 -3 4 C-3 4.66 -3 5.32 -3 6 C-1.68 5.67 -0.36 5.34 1 5 C0.84 4.17 0.84 4.17 0 0 Z " fill="#9F975B" transform="translate(221,80)"/>
<path d="M0 0 C0.6 8.07 -1.18 14.3 -6.13 20.79 C-12.56 28.14 -12.56 28.14 -17 30 C-16.49 29.17 -15.99 28.34 -15.47 27.48 C-14.82 26.39 -14.17 25.31 -13.5 24.19 C-12.85 23.11 -12.2 22.03 -11.53 20.92 C-10 18 -10 18 -10 15 C-10.66 15 -11.32 15 -12 15 C-12.2 15.39 -12.2 15.39 -13.24 17.37 C-13.78 18.38 -14.32 19.39 -14.88 20.44 C-15.41 21.45 -15.94 22.46 -16.49 23.5 C-18 26 -18 26 -20 27 C-18.71 16.22 -12.12 8.44 -4.14 1.55 C-2 0 -2 0 0 0 Z " fill="#9C9558" transform="translate(280,57)"/>
<path d="M0 0 C0.66 0.99 1.32 1.98 2 3 C1.3 5.45 0.23 7.57 -0.96 9.82 C-5.25 18.04 -6.17 25.32 -6.71 34.5 C-7.09 39.1 -7.94 43.52 -9 48 C-13.61 40.01 -13.17 28.41 -11.28 19.67 C-9.04 12.62 -6.35 4.23 0 0 Z " fill="#857D51" transform="translate(333,55)"/>
<path d="M0 0 C9.83 5.31 15.18 10.73 20 21 C20.8 23.87 21 25.99 21 29 C20 30 20 30 17.25 30.38 C11.18 30.35 5.49 27.31 0 25 C3.88 23 3.88 23 5 23 C5.99 22.67 6.98 22.34 8 22 C10.35 22.6 12.69 23.26 15 24 C14.57 23.13 14.13 22.27 13.69 21.38 C13.13 20.26 12.57 19.15 12 18 C11.44 16.93 10.89 15.85 10.31 14.75 C9 12 9 12 9 10 C8.7 9.86 8.7 9.86 7.19 9.12 C5 8 5 8 2 6 C2 4.68 2 3.36 2 2 C1.34 2 0.68 2 0 2 C0 1.34 0 0.68 0 0 Z " fill="#877C52" transform="translate(362,172)"/>
<path d="M0 0 C3.36 1.37 4.72 2.62 6.31 5.88 C6.66 6.55 7.01 7.23 7.36 7.93 C8.13 10.41 7.94 11.6 7 14 C4.94 16.25 4.94 16.25 3 18 C2.95 17.36 2.9 16.72 2.85 16.07 C2.78 15.24 2.7 14.41 2.62 13.56 C2.56 12.74 2.49 11.92 2.41 11.07 C2.35 10.73 2.35 10.73 2 9 C1.34 8.67 0.68 8.34 0 8 C-3.69 14.88 -4.16 22.36 -5 30 C-8.16 26.84 -7.63 23.37 -8 19 C-8.33 23.95 -8.66 28.9 -9 34 C-8.34 34 -7.68 34 -7 34 C-7.33 36.31 -7.66 38.62 -8 41 C-12.13 33.63 -11.28 22.01 -9.05 14.04 C-6.98 8.33 -4.86 3.75 0 0 Z " fill="#8C8257" transform="translate(302,89)"/>
<path d="M0 0 C8.98 3.83 17.4 10.21 22 19 C22 19.99 22 20.98 22 22 C12.08 21.56 4.23 15.81 -2.54 8.93 C-4.06 6.92 -4.59 5.47 -5 3 C-4.5 3.4 -4.01 3.8 -3.5 4.21 C0.85 7.6 4.84 10.06 10 12 C8.58 8.54 6.94 6.97 3.88 4.88 C1.68 3.37 1.68 3.37 0 2 C0 1.34 0 0.68 0 0 Z " fill="#A49A5F" transform="translate(355,174)"/>
<path d="M0 0 C2.39 3.59 3.13 7.11 4.06 11.25 C4.24 11.99 4.41 12.73 4.59 13.49 C6.17 20.34 7.13 26.97 7.1 34.03 C7.09 35.31 7.09 36.6 7.09 37.92 C7.08 39.26 7.07 40.6 7.06 41.94 C7.06 43.3 7.05 44.67 7.05 46.03 C7.04 49.36 7.02 52.68 7 56 C6.67 56 6.34 56 6 56 C5.67 52.7 5.34 49.4 5 46 C4.67 46 4.34 46 4 46 C3.96 44.94 3.93 43.88 3.89 42.79 C3.82 41.4 3.75 40.01 3.69 38.62 C3.66 37.93 3.64 37.23 3.62 36.51 C3.51 34.48 3.51 34.48 3 31 C2.01 30.34 1.02 29.68 0 29 C-0.71 27.03 -0.71 27.03 -1.17 24.65 C-1.34 23.8 -1.51 22.95 -1.69 22.07 C-1.77 21.63 -1.77 21.63 -2.19 19.38 C-2.28 18.93 -2.28 18.93 -2.72 16.66 C-3.16 14.44 -3.59 12.22 -4 10 C-3.18 10.17 -3.18 10.17 1 11 C0.83 9.93 0.67 8.86 0.5 7.75 C0 4 0 4 0 0 Z " fill="#834734" transform="translate(280,330)"/>
<path d="M0 0 C0 1.32 0 2.64 0 4 C-15.65 13.12 -29.94 13.08 -47 9 C-43.25 7.8 -39.67 7.9 -35.75 7.94 C-35.12 7.94 -35.12 7.94 -31.92 7.96 C-30.96 7.98 -29.99 7.99 -29 8 C-29 7.67 -29 7.34 -29 7 C-27.71 6.75 -26.42 6.49 -25.09 6.23 C-23.37 5.88 -21.65 5.54 -19.94 5.19 C-19.09 5.02 -18.24 4.86 -17.37 4.69 C-13.42 3.88 -9.75 3.01 -6.07 1.36 C-3 0 -3 0 0 0 Z " fill="#877C50" transform="translate(372,116)"/>
<path d="M0 0 C-0.33 1.98 -0.66 3.96 -1 6 C-1.66 6 -2.32 6 -3 6 C-3.33 6.99 -3.66 7.98 -4 9 C-5.96 10.4 -7.95 11.74 -10 13 C-10.66 12.67 -11.32 12.34 -12 12 C-11.67 10.68 -11.34 9.36 -11 8 C-11.28 8.11 -11.28 8.11 -12.72 8.66 C-17.72 10.46 -21.69 11.34 -27 11 C-22.59 5.81 -17.65 3.84 -11.06 3.25 C-9.38 3.15 -7.69 3.06 -6 3 C-6 2.34 -6 1.68 -6 1 C-7.46 0.97 -8.92 0.95 -10.38 0.94 C-10.78 0.93 -10.78 0.93 -12.84 0.9 C-15 1 -15 1 -17 2 C-17.66 1.67 -18.32 1.34 -19 1 C-19.33 1.66 -19.66 2.32 -20 3 C-20 1.68 -20 0.36 -20 -1 C-5.94 -3.39 -5.94 -3.39 0 0 Z " fill="#958B5E" transform="translate(309,155)"/>
<path d="M0 0 C0 0.99 0 1.98 0 3 C0.33 3.66 0.66 4.32 1 5 C2.65 3.35 4.3 1.7 6 0 C6.33 0.99 6.66 1.98 7 3 C6.34 3 5.68 3 5 3 C4.95 3.28 4.95 3.28 4.71 4.69 C3.82 7.59 2.36 9.55 0.56 12 C-1.57 14.92 -3.48 17.71 -5 21 C-4.01 21.33 -3.02 21.66 -2 22 C-2.66 22.66 -3.32 23.32 -4 24 C-6.38 23.98 -6.38 23.98 -9.12 23.62 C-10.04 23.51 -10.95 23.4 -11.88 23.29 C-12.58 23.19 -13.28 23.1 -14 23 C-14 23.66 -14 24.32 -14 25 C-15.32 25.33 -16.64 25.66 -18 26 C-17.34 24.02 -16.68 22.04 -16 20 C-15.34 20.33 -14.68 20.66 -14 21 C-13.32 19.99 -12.65 18.97 -11.95 17.93 C-11.5 17.25 -11.5 17.25 -9.25 13.88 C-8.81 13.21 -8.36 12.54 -7.91 11.86 C-7.03 10.54 -6.15 9.22 -5.27 7.9 C-5.06 7.59 -5.06 7.59 -4 6 C-2.67 4 -1.33 2 0 0 Z " fill="#8B7954" transform="translate(254,191)"/>
<path d="M0 0 C0.66 0.33 1.32 0.66 2 1 C2.58 2.78 2.58 2.78 3.04 5.08 C3.2 5.91 3.37 6.74 3.55 7.6 C3.72 8.47 3.89 9.35 4.06 10.25 C4.24 11.11 4.41 11.97 4.59 12.86 C4.92 14.52 5.25 16.18 5.57 17.84 C5.9 19.52 6.31 21.18 6.74 22.84 C7.07 25.6 6.41 26.91 5.06 29.31 C4.68 30.01 4.3 30.71 3.91 31.43 C3.61 31.95 3.31 32.46 3 33 C3.66 33.33 4.32 33.66 5 34 C4.34 34.66 3.68 35.32 3 36 C-0.38 26.5 -2.87 18.23 -2 8 C-2.33 8 -2.66 8 -3 8 C-3 5.69 -3 3.38 -3 1 C-2.67 1.17 -2.67 1.17 -1 2 C-0.67 1.34 -0.34 0.68 0 0 Z " fill="#693425" transform="translate(21,348)"/>
<path d="M0 0 C-0.86 12 -6.32 17.92 -15 26 C-15.66 25.67 -16.32 25.34 -17 25 C-16.8 24.74 -16.8 24.74 -15.76 23.43 C-12.92 19.76 -10.4 16.49 -9 12 C-12.89 13.5 -14.47 15.7 -16.75 19.12 C-17.36 20.04 -17.98 20.95 -18.61 21.88 C-19.07 22.58 -19.53 23.28 -20 24 C-21 21 -21 21 -20.14 18.84 C-16.51 12.68 -8.29 0 0 0 Z " fill="#A79E62" transform="translate(342,140)"/>
<path d="M0 0 C0.62 2.31 0.62 2.31 1 5 C0.67 5.5 0.67 5.5 -1 8 C-1 5.69 -1 3.38 -1 1 C-2.94 1.75 -2.94 1.75 -5 3 C-5.75 5.12 -5.75 5.12 -6 7 C-6.7 7.1 -7.4 7.21 -8.12 7.31 C-11.39 8.09 -14.02 9.48 -17 11 C-17.66 11 -18.32 11 -19 11 C-19.33 12.32 -19.66 13.64 -20 15 C-19.01 15.33 -18.02 15.66 -17 16 C-17.87 16.39 -18.73 16.78 -19.62 17.19 C-23.26 19.14 -25.92 21.28 -29 24 C-29.66 23.67 -30.32 23.34 -31 23 C-28.03 19.7 -25.06 16.4 -22 13 C-26 13 -26 13 -27.75 14.5 C-28.16 15 -28.57 15.49 -29 16 C-29.66 15.67 -30.32 15.34 -31 15 C-21.48 6.12 -13.47 -0.46 0 0 Z " fill="#918659" transform="translate(398,133)"/>
<path d="M0 0 C3.9 -0.12 7.79 -0.19 11.69 -0.25 C12.79 -0.28 13.89 -0.32 15.03 -0.35 C23.22 -0.45 23.22 -0.45 27.15 1.82 C29.34 4.41 30.77 6.84 32 10 C31.67 10.66 31.34 11.32 31 12 C30.34 11.09 29.68 10.19 29 9.25 C25.11 4.68 21.03 2.35 15.03 1.65 C7.59 1.44 2.98 2.36 -2.69 7.38 C-7.1 12.38 -8.43 15.69 -8.44 22.44 C-8.46 23.71 -8.48 24.99 -8.5 26.31 C-7.92 30.56 -6.6 32.64 -4 36 C-3.34 36.99 -2.68 37.98 -2 39 C-4.25 38.94 -4.25 38.94 -7 38 C-11.82 32.53 -11.59 26.76 -11.39 19.68 C-10.74 13.52 -8.79 9.22 -4.94 4.44 C-3 3 -3 3 0 3 C0 2.01 0 1.02 0 0 Z " fill="#FCE5AB" transform="translate(130,331)"/>
<path d="M0 0 C0.99 0.66 1.98 1.32 3 2 C4.48 10.37 5.63 20.13 2 28 C1.67 28 1.34 28 1 28 C0.67 23.71 0.34 19.42 0 15 C-2.45 18.68 -2.23 21.44 -2.12 25.69 C-2.12 26.39 -2.11 27.09 -2.1 27.81 C-2.07 29.54 -2.04 31.27 -2 33 C-2.66 32.67 -3.32 32.34 -4 32 C-6.64 22.7 -5.79 11.84 -2 3 C-1.34 2.01 -0.68 1.02 0 0 Z " fill="#A0965D" transform="translate(302,96)"/>
<path d="M0 0 C1.32 0.66 2.64 1.32 4 2 C4.46 20.31 4.46 20.31 0.3 24.86 C-5.95 30.62 -11.37 33.52 -20 33.31 C-20.69 33.32 -21.37 33.32 -22.08 33.32 C-26.41 33.28 -29.97 32.58 -34 31 C-34 29.35 -34 27.7 -34 26 C-33.11 26.66 -32.23 27.32 -31.31 28 C-25.98 31.07 -19.96 30.65 -14 30 C-7.17 27.69 -3.27 23.89 0.06 17.58 C2.13 11.9 1.63 5.74 0 0 Z " fill="#FDE6AE" transform="translate(162,344)"/>
<path d="M0 0 C0.99 0.33 1.98 0.66 3 1 C2.48 9.4 -5.68 16.01 -11.5 21.25 C-14.1 23.07 -15.88 23.64 -19 24 C-18.67 22.68 -18.34 21.36 -18 20 C-17.34 20 -16.68 20 -16 20 C-16 19.01 -16 18.02 -16 17 C-14.46 15.49 -14.46 15.49 -12.38 13.88 C-8.44 10.61 -5.87 7.17 -3.23 2.82 C-2 1 -2 1 0 0 Z " fill="#796F3F" transform="translate(397,58)"/>
<path d="M0 0 C5.31 3.11 10.75 6.65 14 12 C13.69 14.75 13.69 14.75 13 17 C10.69 17 8.38 17 6 17 C6.33 15.35 6.66 13.7 7 12 C0.64 7.18 -5.44 3.59 -13 1 C-8.44 -1.59 -4.98 -1.56 0 0 Z " fill="#7A6E43" transform="translate(326,186)"/>
<path d="M0 0 C2.31 0.66 4.62 1.32 7 2 C7 2.33 7 2.66 7 3 C5.35 3 3.7 3 2 3 C1.11 5.67 0.52 8.24 0 11 C0.66 11 1.32 11 2 11 C2.91 13.74 3.51 16.36 4.06 19.19 C4.24 20.09 4.42 20.99 4.6 21.92 C4.73 22.61 4.86 23.29 5 24 C5.66 24 6.32 24 7 24 C7.33 23.34 7.66 22.68 8 22 C11.27 27.23 11.11 30.17 10 36 C10.6 36.27 11.2 36.54 11.81 36.81 C13.97 37.98 15.36 39.19 17 41 C16.67 41.99 16.34 42.98 16 44 C6.27 36.8 0.89 24.79 -1 13 C-1.09 11.11 -1.13 9.21 -1.12 7.31 C-1.13 6.36 -1.13 5.41 -1.13 4.43 C-1 2 -1 2 0 0 Z " fill="#887E56" transform="translate(216,122)"/>
<path d="M0 0 C4.86 0.42 6.9 2.33 10 6 C12.31 9.83 13.4 12.51 13 17 C13.99 17 14.98 17 16 17 C17.08 20.87 16.95 22.52 15 26 C14.55 25.04 14.11 24.07 13.64 23.08 C13.03 21.8 12.42 20.53 11.81 19.25 C11.52 18.62 11.23 17.98 10.93 17.33 C8.91 13.17 6.91 10.67 3 8 C2.67 8.5 2.67 8.5 1 11 C0.67 10.67 0.34 10.34 0 10 C-0.66 10.66 -1.32 11.32 -2 12 C-1.86 10.37 -1.71 8.75 -1.56 7.12 C-1.48 6.22 -1.4 5.32 -1.32 4.38 C-1 2 -1 2 0 0 Z " fill="#7E7343" transform="translate(236,16)"/>
<path d="M0 0 C1.32 0 2.64 0 4 0 C4.45 11.32 3.82 22.02 -2 32 C-2.99 31.67 -3.98 31.34 -5 31 C-4.5 26.64 -3.64 22.56 -2.5 18.31 C-0.92 12.23 -0.32 6.26 0 0 Z " fill="#872D14" transform="translate(268,365)"/>
<path d="M0 0 C0.33 0 0.66 0 1 0 C1.13 0.56 1.26 1.13 1.4 1.71 C8.38 31.7 8.38 31.7 11.62 38.75 C13.45 43.06 14.21 47.41 15 52 C13.15 51.48 13.15 51.48 11 50 C9.99 47.4 9.24 45 8.56 42.31 C8.14 40.76 7.72 39.21 7.3 37.66 C7.08 36.88 6.87 36.1 6.65 35.29 C5.68 31.88 4.49 28.54 3.31 25.19 C0.47 16.74 -1.8 8.86 0 0 Z " fill="#84301A" transform="translate(242,275)"/>
<path d="M0 0 C0.66 0.33 1.32 0.66 2 1 C1.67 1.48 1.35 1.97 1.01 2.47 C-1.32 6.05 -3.24 9.36 -4.56 13.44 C-5.04 14.61 -5.51 15.79 -6 17 C-7.32 17.38 -8.66 17.71 -10 18 C-11.85 19.41 -11.85 19.41 -13.62 21.06 C-16.79 24 -16.79 24 -19 24 C-19.1 24.46 -19.1 24.46 -19.62 26.81 C-21.37 30.87 -23.04 31.3 -27 33 C-28.88 34.69 -28.88 34.69 -30 36 C-30.99 35.67 -31.98 35.34 -33 35 C-35.19 35.44 -35.19 35.44 -37 36 C-33.63 33.25 -30.18 30.69 -26.62 28.19 C-21.95 24.8 -17.94 21.2 -14 17 C-13.21 16.24 -12.42 15.47 -11.61 14.69 C-8.85 11.85 -6.53 8.87 -4.19 5.69 C-3.98 5.41 -3.98 5.41 -2.96 4.02 C-1.97 2.68 -0.98 1.34 0 0 Z " fill="#7F2E18" transform="translate(263,428)"/>
<path d="M0 0 C-2.75 0.92 -4.36 1.11 -7.19 1.06 C-7.82 1.05 -7.82 1.05 -11 1 C-10.84 1.82 -10.84 1.82 -10 6 C-8.02 6 -6.04 6 -4 6 C-4 6.33 -4 6.66 -4 7 C-12.91 6.67 -21.82 6.34 -31 6 C-31 5.34 -31 4.68 -31 4 C-30.01 3.67 -29.02 3.34 -28 3 C-39.55 2.67 -51.1 2.34 -63 2 C-63 1.67 -63 1.34 -63 1 C-62.69 0.99 -62.69 0.99 -61.12 0.97 C-54.63 0.86 -48.14 0.75 -41.65 0.63 C-39.23 0.58 -36.81 0.54 -34.39 0.5 C-30.91 0.44 -27.42 0.38 -23.94 0.32 C-22.86 0.3 -21.79 0.28 -20.68 0.27 C-16.22 0.18 -11.84 0.05 -7.41 -0.55 C-4.44 -0.94 -2.76 -1.03 0 0 Z " fill="#916452" transform="translate(189,220)"/>
<path d="M0 0 C-1.59 4.47 -5.07 6.86 -8.62 9.75 C-9.24 10.26 -9.85 10.76 -10.48 11.29 C-11.98 12.53 -13.49 13.77 -15 15 C-15.33 14.01 -15.66 13.02 -16 12 C-15.67 11.34 -15.34 10.68 -15 10 C-15.66 10 -16.32 10 -17 10 C-17.04 10.62 -17.08 11.24 -17.12 11.88 C-17.27 12.23 -17.27 12.23 -18 14 C-21.06 15.25 -21.06 15.25 -24 16 C-20.45 11.71 -16.76 7.62 -12.88 3.62 C-12.05 2.77 -11.22 1.92 -10.37 1.04 C-6.52 -2.27 -4.33 -2.63 0 0 Z " fill="#76623F" transform="translate(276,196)"/>
<path d="M0 0 C0.33 0.66 0.66 1.32 1 2 C1.99 1.67 2.98 1.34 4 1 C5 2 5 2 5.02 4.68 C4.97 5.85 4.93 7.02 4.88 8.22 C4.83 9.48 4.78 10.74 4.73 12.04 C4.68 13.38 4.62 14.72 4.56 16.06 C4.51 17.41 4.46 18.75 4.4 20.1 C4.27 23.4 4.14 26.7 4 30 C3.67 30 3.34 30 3 30 C2.67 27.69 2.34 25.38 2 23 C1.67 23 1.34 23 1 23 C0.67 25.97 0.34 28.94 0 32 C-0.33 32 -0.66 32 -1 32 C-1.02 27.92 -1.04 23.85 -1.05 19.77 C-1.06 18.39 -1.07 17 -1.08 15.62 C-1.09 13.62 -1.09 11.63 -1.1 9.64 C-1.1 8.44 -1.11 7.24 -1.11 6 C-1 3 -1 3 0 0 Z " fill="#5E281A" transform="translate(18,316)"/>
<path d="M0 0 C2.78 5.56 1.34 13.67 -0.31 19.44 C-1.49 22.91 -2.88 25.98 -5 29 C-5.66 28.34 -6.32 27.68 -7 27 C-6.34 27 -5.68 27 -5 27 C-5.02 26.47 -5.02 26.47 -5.12 23.81 C-4.98 19.49 -3.89 16.79 -2 13 C-2.66 12.34 -3.32 11.68 -4 11 C-4 9.68 -4 8.36 -4 7 C-4.82 7.49 -4.82 7.49 -9 10 C-9.66 9.34 -10.32 8.68 -11 8 C-10.34 7.34 -9.68 6.68 -9 6 C-9 5.01 -9 4.02 -9 3 C-5.67 0.5 -4.27 0 0 0 Z " fill="#8E8559" transform="translate(284,50)"/>
<path d="M0 0 C0.33 0 0.66 0 1 0 C1.33 3.63 1.66 7.26 2 11 C2.66 9.68 3.32 8.36 4 7 C4.33 14.92 4.66 22.84 5 31 C6.98 31.66 8.96 32.32 11 33 C7.56 35.3 5.06 35.54 1 36 C-1.4 32.31 -1.18 28.84 -0.98 24.61 C-0.95 23.9 -0.93 23.2 -0.9 22.47 C-0.82 20.23 -0.72 17.99 -0.62 15.75 C-0.57 14.23 -0.51 12.7 -0.45 11.18 C-0.31 7.45 -0.16 3.73 0 0 Z " fill="#502718" transform="translate(98,375)"/>
<path d="M0 0 C0.42 0.08 0.42 0.08 2.55 0.51 C6.16 1.02 9.48 0.99 13.12 0.88 C22.47 0.82 31.63 1.82 39 8 C39.17 8.33 39.17 8.33 40 10 C36.38 14.88 36.38 14.88 33 16 C33 15.01 33 14.02 33 13 C32.34 12.67 31.68 12.34 31 12 C31.33 11.34 31.66 10.68 32 10 C30.68 9.34 29.36 8.68 28 8 C28.33 6.68 28.66 5.36 29 4 C27.68 4.33 26.36 4.66 25 5 C25 4.34 25 3.68 25 3 C24.01 3 23.02 3 22 3 C22 3.66 22 4.32 22 5 C20.35 5 18.7 5 17 5 C17 4.34 17 3.68 17 3 C10.26 2.87 3.7 3.2 -3 4 C-2.01 2.68 -1.02 1.36 0 0 Z " fill="#958D64" transform="translate(339,103)"/>
<path d="M0 0 C0 2 0 2 -1.5 3.62 C-2 4.08 -2.49 4.53 -3 5 C-2.34 5.33 -1.68 5.66 -1 6 C-2.09 6.27 -3.17 6.53 -4.29 6.8 C-5.73 7.16 -7.18 7.52 -8.62 7.88 C-9.34 8.05 -10.05 8.22 -10.79 8.4 C-14.93 9.43 -18.97 10.59 -23 12 C-23.33 11.01 -23.66 10.02 -24 9 C-24.66 8.34 -25.32 7.68 -26 7 C-23.81 6.21 -21.63 5.41 -19.44 4.62 C-18.22 4.18 -17 3.74 -15.75 3.29 C-5.26 -0.32 -5.26 -0.32 0 0 Z " fill="#6A3C2D" transform="translate(137,259)"/>
<path d="M0 0 C-0.34 5.43 -3.38 9.19 -7 13 C-10.21 15.54 -13.54 17.81 -17 20 C-17.66 19.67 -18.32 19.34 -19 19 C-18.51 18.53 -18.01 18.06 -17.5 17.57 C-16.86 16.95 -16.22 16.33 -15.56 15.69 C-15.24 15.38 -15.24 15.38 -13.63 13.82 C-12 12 -12 12 -11 9 C-11.99 9 -12.98 9 -14 9 C-13.77 7.17 -13.77 7.17 -13 5 C-11.07 3.52 -11.07 3.52 -8.69 2.25 C-7.91 1.82 -7.13 1.39 -6.32 0.95 C-4 0 -4 0 0 0 Z " fill="#A99F63" transform="translate(392,139)"/>
<path d="M0 0 C0.33 0 0.66 0 1 0 C1 12.54 1 25.08 1 38 C-3.57 33.43 -3.26 26.03 -3.27 19.93 C-3.27 19.47 -3.27 19.47 -3.25 17.12 C-3.26 16.18 -3.27 15.23 -3.27 14.25 C-3.27 13.35 -3.27 12.44 -3.27 11.51 C-3.26 11.1 -3.26 11.1 -3.26 9.03 C-3 7 -3 7 -1 5 C-0.38 2.38 -0.38 2.38 0 0 Z " fill="#772915" transform="translate(241,243)"/>
<path d="M0 0 C4.65 -0.32 7.18 -0.39 11.44 1.62 C14.46 4.42 14.82 5.96 15 10 C11.22 8.19 7.63 6.09 4 4 C4.22 4.89 4.43 5.78 4.66 6.7 C4.93 7.87 5.21 9.04 5.5 10.25 C5.78 11.41 6.06 12.57 6.34 13.77 C7 17 7 17 7 21 C6.34 21 5.68 21 5 21 C1.44 12.94 1.44 12.94 1 10 C1.33 9.34 1.66 8.68 2 8 C1.34 8 0.68 8 0 8 C0 5.36 0 2.72 0 0 Z " fill="#746839" transform="translate(216,125)"/>
<path d="M0 0 C0.82 0.33 0.82 0.33 5 2 C4.85 3.07 4.69 4.14 4.54 5.25 C3.84 10.82 3.65 16.4 3.44 22 C3.39 23.06 3.35 24.12 3.31 25.21 C3.2 27.81 3.1 30.4 3 33 C2.67 33 2.34 33 2 33 C1.95 32.36 1.9 31.72 1.85 31.07 C1.78 30.24 1.7 29.41 1.62 28.56 C1.56 27.74 1.49 26.92 1.41 26.07 C1.28 25.38 1.14 24.7 1 24 C0.34 23.67 -0.32 23.34 -1 23 C-3.51 15.48 -1.58 7.56 0 0 Z " fill="#6C4334" transform="translate(184,299)"/>
<path d="M0 0 C-0.33 0.99 -0.66 1.98 -1 3 C0.32 3.33 1.64 3.66 3 4 C0.58 4.65 -1.83 5.29 -4.25 5.94 C-4.93 6.12 -5.61 6.3 -6.32 6.49 C-9.54 7.35 -12.76 8.21 -16 9 C-16.66 8.01 -17.32 7.02 -18 6 C-19.98 6.33 -21.96 6.66 -24 7 C-17.52 1.64 -8.33 -2.52 0 0 Z " fill="#6C3D2D" transform="translate(113,244)"/>
<path d="M0 0 C2.66 3.55 3.41 4.68 4.25 8.7 C4.44 9.6 4.64 10.5 4.85 11.43 C5.24 13.29 5.63 15.16 6.02 17.03 C7.31 22.91 9.08 27.73 12 33 C9.56 32.38 9.56 32.38 7 31 C6.19 27.88 6.19 27.88 6 25 C5.01 25 4.02 25 3 25 C2.88 24.2 2.75 23.39 2.62 22.56 C2.42 21.72 2.21 20.87 2 20 C1.34 19.67 0.68 19.34 0 19 C0 12.73 0 6.46 0 0 Z " fill="#79703E" transform="translate(233,29)"/>
<path d="M0 0 C2.23 1.75 2.95 2.62 3.36 5.48 C3.35 6.44 3.34 7.41 3.33 8.41 C3.32 9.48 3.32 10.56 3.31 11.66 C3.29 12.78 3.27 13.91 3.25 15.06 C3.24 16.16 3.24 17.25 3.23 18.38 C3.17 24.97 2.79 31.46 2 38 C1.67 38 1.34 38 1 38 C0.34 33.71 -0.32 29.42 -1 25 C-1.33 25 -1.66 25 -2 25 C-2.06 21.77 -2.09 18.54 -2.12 15.31 C-2.13 14.86 -2.13 14.86 -2.18 12.55 C-2.21 7.93 -2.24 4.18 0 0 Z " fill="#6A402F" transform="translate(99,354)"/>
<path d="M0 0 C0.33 0 0.66 0 1 0 C1.33 5.94 1.66 11.88 2 18 C2.99 18 3.98 18 5 18 C5.33 13.71 5.66 9.42 6 5 C6.33 5 6.66 5 7 5 C7 12.59 7 20.18 7 28 C6.34 28.33 6.34 28.33 3 30 C3.19 30.87 3.37 31.73 3.56 32.62 C4.01 36.05 3.72 38.64 3 42 C2.67 42 2.34 42 2 42 C0.21 32.49 -0.25 23.35 -0.12 13.69 C-0.11 12.35 -0.11 11.01 -0.1 9.67 C-0.07 6.45 -0.04 3.22 0 0 Z " fill="#8D6052" transform="translate(16,321)"/>
<path d="M0 0 C0.33 0.5 0.33 0.5 2 3 C2.66 2.67 3.32 2.34 4 2 C5.32 12.31 5.09 22.63 5 33 C4.67 33 4.34 33 4 33 C3.67 30.36 3.34 27.72 3 25 C2.67 27.97 2.34 30.94 2 34 C1.67 34 1.34 34 1 34 C0.67 22.78 0.34 11.56 0 0 Z " fill="#512514" transform="translate(182,319)"/>
<path d="M0 0 C2.46 2.09 3.85 3.33 4.56 6.53 C4.59 7.46 4.62 8.39 4.64 9.35 C4.68 10.37 4.72 11.38 4.76 12.43 C4.77 13.48 4.79 14.54 4.81 15.62 C4.85 16.69 4.89 17.75 4.93 18.84 C5.16 26.68 5.16 26.68 4 29 C3.34 29 2.68 29 2 29 C0 27 0 27 -0.23 24.29 C-0.22 23.17 -0.21 22.05 -0.2 20.9 C-0.19 19.69 -0.18 18.48 -0.18 17.23 C-0.16 15.96 -0.14 14.68 -0.12 13.38 C-0.12 12.74 -0.12 12.74 -0.1 9.5 C-0.07 6.33 -0.04 3.17 0 0 Z " fill="#5C2918" transform="translate(232,330)"/>
<path d="M0 0 C0 0.66 0 1.32 0 2 C1.32 2 2.64 2 4 2 C3.67 3.65 3.34 5.3 3 7 C2.34 6.67 1.68 6.34 1 6 C1.33 5.34 1.66 4.68 2 4 C1.63 4.18 1.63 4.18 -0.23 5.09 C-1.21 5.56 -2.18 6.02 -3.19 6.5 C-4.15 6.96 -5.11 7.43 -6.11 7.91 C-8.99 9 -10.95 9.22 -14 9 C-14.16 8.18 -14.16 8.18 -15 4 C-13.26 3.13 -11.51 2.28 -9.75 1.44 C-8.78 0.96 -7.8 0.49 -6.8 -0 C-3.9 -1.04 -2.8 -1.11 0 0 Z " fill="#794C3E" transform="translate(66,450)"/>
<path d="M0 0 C5.33 4.82 8.13 12.99 9 20 C9.15 25.01 9.12 29.99 9 35 C8.67 35 8.34 35 8 35 C7.67 32.69 7.34 30.38 7 28 C6.67 28 6.34 28 6 28 C5.66 25.44 5.33 22.88 5 20.31 C4.9 19.59 4.81 18.87 4.71 18.13 C4.23 14.39 3.88 10.78 4 7 C3.01 7 2.02 7 1 7 C0.67 4.69 0.34 2.38 0 0 Z " fill="#A0985F" transform="translate(248,26)"/>
</svg>
